<svg width="171" height="42" viewBox="0 0 171 42" fill="none" xmlns="http://www.w3.org/2000/svg">
<path d="M11.0723 33.25C10.8249 33.25 10.6173 33.166 10.4493 32.998C10.2813 32.83 10.1973 32.6218 10.1973 32.3733C10.1973 32.1248 10.2813 31.9171 10.4493 31.7502C10.6173 31.5834 10.8249 31.5 11.0723 31.5H30.9278C31.1763 31.5 31.3839 31.584 31.5507 31.752C31.7176 31.92 31.8016 32.1282 31.8028 32.3767C31.8039 32.6252 31.7199 32.8329 31.5507 32.9998C31.3816 33.1666 31.1739 33.25 30.9278 33.25H11.0723ZM12.432 28.203C11.7437 28.203 11.144 27.9872 10.633 27.5555C10.122 27.1238 9.79417 26.5755 9.6495 25.9105L7.56 14.8313C7.50167 14.8546 7.43633 14.8674 7.364 14.8697C7.2905 14.8732 7.22458 14.875 7.16625 14.875C6.61675 14.875 6.16 14.6883 5.796 14.315C5.432 13.9417 5.25 13.489 5.25 12.957C5.25 12.4052 5.43258 11.9362 5.79775 11.55C6.16175 11.165 6.61908 10.9725 7.16975 10.9725C7.72042 10.9725 8.18883 11.165 8.575 11.55C8.96 11.9362 9.1525 12.4052 9.1525 12.957C9.1525 13.0783 9.14783 13.1909 9.1385 13.2948C9.12917 13.3986 9.09475 13.5012 9.03525 13.6027L13.8652 15.547C14.0892 15.6368 14.3138 15.6485 14.539 15.582C14.763 15.5143 14.9532 15.3796 15.1095 15.1778L19.838 8.77275C19.5848 8.60708 19.3842 8.38775 19.236 8.11475C19.0878 7.84292 19.0137 7.5495 19.0137 7.2345C19.0137 6.68383 19.2068 6.21542 19.593 5.82925C19.978 5.44308 20.4464 5.25 20.9982 5.25C21.5489 5.25 22.0179 5.4425 22.4053 5.8275C22.7926 6.2125 22.9863 6.67917 22.9863 7.2275C22.9863 7.55883 22.9122 7.8575 22.764 8.1235C22.6158 8.39183 22.4152 8.60825 22.162 8.77275L26.8905 15.1778C27.0468 15.3796 27.237 15.5137 27.461 15.5802C27.6862 15.6491 27.9107 15.6386 28.1347 15.5488L32.9647 13.6027C32.9332 13.5094 32.9058 13.4073 32.8825 13.2965C32.8592 13.1845 32.8475 13.0713 32.8475 12.957C32.8475 12.4052 33.0295 11.9362 33.3935 11.55C33.7575 11.165 34.2148 10.9725 34.7655 10.9725C35.3162 10.9725 35.7846 11.165 36.1708 11.55C36.5569 11.9362 36.75 12.4052 36.75 12.957C36.75 13.4867 36.5563 13.9387 36.169 14.3132C35.7817 14.6877 35.3115 14.875 34.7585 14.875C34.7142 14.875 34.664 14.868 34.608 14.854C34.552 14.84 34.4902 14.8324 34.4225 14.8313L32.3505 25.9088C32.2047 26.5761 31.8768 27.125 31.367 27.5555C30.8572 27.986 30.2575 28.2018 29.568 28.203H12.432Z" fill="#FFB84D"/>
<path d="M42.68 16.706C42.6427 16.566 42.61 16.412 42.582 16.244C42.554 16.0667 42.54 15.8893 42.54 15.712C42.54 15.404 42.568 15.0027 42.624 14.508C42.6893 14.0133 42.764 13.4627 42.848 12.856C42.9413 12.2493 43.03 11.61 43.114 10.938C43.2073 10.266 43.282 9.59867 43.338 8.936C43.4033 8.264 43.436 7.62933 43.436 7.032L44.836 6.962C44.8547 7.03667 44.864 7.116 44.864 7.2C44.8733 7.27467 44.878 7.36333 44.878 7.466C44.878 7.75533 44.85 8.124 44.794 8.572C44.738 9.01067 44.6727 9.51 44.598 10.07C44.5233 10.63 44.444 11.2227 44.36 11.848C44.2853 12.4733 44.22 13.1127 44.164 13.766C44.108 14.41 44.08 15.0447 44.08 15.67C44.08 15.8753 44.0847 16.0153 44.094 16.09C44.1127 16.1553 44.1547 16.2253 44.22 16.3L42.68 16.706ZM41.98 17.112C42.0547 16.8973 42.1527 16.7153 42.274 16.566C42.4047 16.4073 42.5633 16.2767 42.75 16.174C42.9367 16.062 43.156 15.978 43.408 15.922C43.66 15.866 43.94 15.8333 44.248 15.824C44.8547 15.8053 45.3773 15.7867 45.816 15.768C46.2547 15.7493 46.6373 15.726 46.964 15.698C47.2907 15.67 47.594 15.6327 47.874 15.586C48.1633 15.53 48.4573 15.4693 48.756 15.404C48.6907 15.9453 48.504 16.3653 48.196 16.664C47.8973 16.9627 47.51 17.112 47.034 17.112C46.7727 17.112 46.376 17.0793 45.844 17.014C45.3213 16.958 44.7287 16.93 44.066 16.93C43.674 16.93 43.3007 16.944 42.946 16.972C42.6007 17 42.2787 17.0467 41.98 17.112ZM42.26 12.674C42.2507 12.6273 42.2367 12.562 42.218 12.478C42.2087 12.394 42.204 12.324 42.204 12.268C42.204 11.9973 42.26 11.7827 42.372 11.624C42.4933 11.456 42.68 11.3347 42.932 11.26C43.1933 11.176 43.5247 11.134 43.926 11.134C44.094 11.134 44.2853 11.1387 44.5 11.148C44.724 11.148 44.9433 11.1527 45.158 11.162C45.382 11.1713 45.5733 11.176 45.732 11.176C46.1427 11.176 46.4833 11.1433 46.754 11.078C47.0247 11.0127 47.2487 10.91 47.426 10.77C47.4447 10.8353 47.4587 10.9147 47.468 11.008C47.4867 11.092 47.496 11.1853 47.496 11.288C47.496 11.6147 47.4167 11.8573 47.258 12.016C47.0993 12.1653 46.824 12.24 46.432 12.24C46.348 12.24 46.194 12.24 45.97 12.24C45.7553 12.2307 45.4987 12.226 45.2 12.226C44.7707 12.226 44.3787 12.2447 44.024 12.282C43.6693 12.31 43.3473 12.3567 43.058 12.422C42.7687 12.4873 42.5027 12.5713 42.26 12.674ZM44.024 7.466C43.6693 7.466 43.3987 7.44733 43.212 7.41C43.0347 7.37267 42.9133 7.30267 42.848 7.2C42.792 7.09733 42.764 6.94333 42.764 6.738C42.764 6.60733 42.7733 6.47667 42.792 6.346C42.8107 6.21533 42.8387 6.10333 42.876 6.01C43.352 6.07533 43.8373 6.12667 44.332 6.164C44.8267 6.192 45.3073 6.206 45.774 6.206C46.39 6.206 46.992 6.178 47.58 6.122C48.1773 6.066 48.7327 5.99133 49.246 5.898C49.1807 6.28067 49.022 6.584 48.77 6.808C48.5273 7.02267 48.1633 7.172 47.678 7.256C47.4353 7.29333 47.1087 7.33067 46.698 7.368C46.2967 7.396 45.858 7.41933 45.382 7.438C44.9153 7.45667 44.4627 7.466 44.024 7.466ZM52.2649 16.118C52.2649 16.51 52.2789 16.8507 52.3069 17.14C52.3442 17.4387 52.3955 17.658 52.4609 17.798C52.1062 17.6673 51.8169 17.49 51.5929 17.266C51.3782 17.0513 51.2242 16.7807 51.1309 16.454C51.0375 16.1273 50.9909 15.74 50.9909 15.292C50.9909 14.7133 51.0375 14.1393 51.1309 13.57C51.2242 12.9913 51.3315 12.394 51.4529 11.778C51.5742 11.1527 51.6815 10.4853 51.7749 9.776C51.8682 9.05733 51.9149 8.26867 51.9149 7.41C51.9149 7.26067 51.9102 7.11133 51.9009 6.962C51.9009 6.80333 51.9009 6.64933 51.9009 6.5C52.3209 6.56533 52.6475 6.752 52.8809 7.06C53.1235 7.368 53.2449 7.79733 53.2449 8.348C53.2449 8.852 53.1935 9.41667 53.0909 10.042C52.9975 10.6673 52.8855 11.33 52.7549 12.03C52.6242 12.7207 52.5075 13.416 52.4049 14.116C52.3115 14.8067 52.2649 15.474 52.2649 16.118ZM54.8969 8.964C54.9062 9.01067 54.9109 9.06667 54.9109 9.132C54.9202 9.19733 54.9249 9.26267 54.9249 9.328C54.9249 9.73867 54.8455 10.014 54.6869 10.154C54.5282 10.294 54.3135 10.364 54.0429 10.364C53.6602 10.364 53.3055 10.364 52.9789 10.364C52.6615 10.3547 52.3535 10.3593 52.0549 10.378C51.7562 10.3967 51.4482 10.4433 51.1309 10.518C50.8229 10.5927 50.4822 10.7093 50.1089 10.868C50.0995 10.812 50.0902 10.7467 50.0809 10.672C50.0809 10.5973 50.0809 10.5273 50.0809 10.462C50.0809 10.1353 50.1555 9.89267 50.3049 9.734C50.4635 9.566 50.6735 9.45867 50.9349 9.412C51.1962 9.356 51.4855 9.328 51.8029 9.328C52.0269 9.328 52.2555 9.33733 52.4889 9.356C52.7222 9.36533 52.9462 9.37 53.1609 9.37C53.4875 9.37 53.8049 9.34667 54.1129 9.3C54.4302 9.244 54.6915 9.132 54.8969 8.964ZM62.0473 17.21C61.4779 17.21 61.0439 17.0933 60.7453 16.86C60.4466 16.6267 60.2973 16.1973 60.2973 15.572C60.2973 15.292 60.3253 14.9747 60.3813 14.62C60.4373 14.256 60.5026 13.878 60.5773 13.486C60.6519 13.0847 60.7173 12.688 60.7733 12.296C60.8293 11.8947 60.8573 11.5167 60.8573 11.162C60.8573 10.546 60.6426 10.238 60.2133 10.238C59.9706 10.238 59.6953 10.3687 59.3873 10.63C59.0793 10.882 58.7806 11.246 58.4913 11.722C58.2019 12.198 57.9593 12.7673 57.7633 13.43C57.5766 14.0927 57.4833 14.8253 57.4833 15.628C57.4833 15.8427 57.4879 16.0667 57.4973 16.3C57.5066 16.524 57.5299 16.7573 57.5673 17C57.4833 17.0093 57.4086 17.014 57.3433 17.014C57.2873 17.0233 57.2359 17.028 57.1893 17.028C56.7599 17.028 56.4379 16.9393 56.2233 16.762C56.0086 16.5753 55.9013 16.2673 55.9013 15.838C55.9013 15.53 55.9339 15.1147 55.9993 14.592C56.0646 14.0693 56.1439 13.4673 56.2373 12.786C56.3399 12.1047 56.4426 11.372 56.5453 10.588C56.6479 9.804 56.7319 8.99667 56.7973 8.166C56.8626 7.326 56.8953 6.49533 56.8953 5.674C56.8953 5.29133 56.8813 4.96 56.8533 4.68C56.8253 4.39067 56.7833 4.176 56.7273 4.036C57.1006 4.16667 57.3899 4.33933 57.5953 4.554C57.8099 4.76867 57.9639 5.03467 58.0573 5.352C58.1506 5.66933 58.1973 6.04733 58.1973 6.486C58.1973 6.86867 58.1693 7.36333 58.1133 7.97C58.0573 8.56733 57.9826 9.23467 57.8893 9.972C57.7959 10.7093 57.6933 11.4887 57.5813 12.31L57.6653 12.324C57.8986 11.6613 58.1926 11.0733 58.5473 10.56C58.9019 10.0467 59.2753 9.64533 59.6673 9.356C60.0593 9.06667 60.4233 8.922 60.7593 8.922C61.3566 8.922 61.7626 9.104 61.9772 9.468C62.2013 9.82267 62.3133 10.3033 62.3133 10.91C62.3133 11.4327 62.2666 11.96 62.1732 12.492C62.0893 13.0147 62.0006 13.542 61.9073 14.074C61.8139 14.5967 61.7673 15.1287 61.7673 15.67C61.7673 16.1087 61.8326 16.4353 61.9633 16.65C62.0939 16.8553 62.2946 17.0373 62.5653 17.196C62.4719 17.2053 62.3833 17.21 62.2993 17.21C62.2152 17.21 62.1313 17.21 62.0473 17.21ZM66.9486 17.21C66.4539 17.21 66.0106 17.0653 65.6186 16.776C65.2359 16.4867 64.9326 16.0853 64.7086 15.572C64.4939 15.0493 64.3866 14.4567 64.3866 13.794C64.3866 13.1033 64.4846 12.464 64.6806 11.876C64.8859 11.2787 65.1706 10.7607 65.5346 10.322C65.8986 9.88333 66.3232 9.54267 66.8086 9.3C67.3032 9.048 67.8352 8.922 68.4046 8.922C69.0952 8.922 69.6179 9.09467 69.9726 9.44C70.3272 9.78533 70.5046 10.2893 70.5046 10.952C70.5046 11.4467 70.3692 11.8947 70.0986 12.296C69.8279 12.688 69.4546 12.996 68.9786 13.22C68.5119 13.444 67.9752 13.556 67.3686 13.556C67.0699 13.556 66.7899 13.542 66.5286 13.514C66.2672 13.4767 66.0152 13.43 65.7726 13.374L65.8146 12.884H66.3326C66.8739 12.884 67.3452 12.7953 67.7466 12.618C68.1479 12.4313 68.4606 12.17 68.6846 11.834C68.9086 11.498 69.0206 11.1107 69.0206 10.672C69.0206 10.3453 68.9412 10.0933 68.7826 9.916C68.6332 9.73867 68.4186 9.65 68.1386 9.65C67.7839 9.65 67.4666 9.78533 67.1866 10.056C66.9066 10.3173 66.6686 10.6627 66.4726 11.092C66.2766 11.512 66.1272 11.9647 66.0246 12.45C65.9219 12.9353 65.8706 13.3973 65.8706 13.836C65.8706 14.6573 65.9919 15.278 66.2346 15.698C66.4866 16.1087 66.8552 16.314 67.3406 16.314C68.2552 16.314 69.0066 15.8567 69.5946 14.942C69.9399 14.998 70.1126 15.124 70.1126 15.32C69.7112 15.9733 69.2539 16.454 68.7406 16.762C68.2366 17.0607 67.6392 17.21 66.9486 17.21ZM74.1585 11.82C74.4011 11.1013 74.6578 10.532 74.9285 10.112C75.2085 9.68267 75.4885 9.37467 75.7685 9.188C76.0485 9.00133 76.3005 8.908 76.5245 8.908C76.7951 8.908 77.0145 8.98267 77.1825 9.132C77.3598 9.28133 77.4905 9.47733 77.5745 9.72C77.6678 9.95333 77.7145 10.2053 77.7145 10.476C77.7145 10.7747 77.6631 11.0593 77.5605 11.33C77.4671 11.6007 77.3131 11.82 77.0985 11.988C76.8931 12.156 76.6225 12.24 76.2865 12.24C76.2305 12.24 76.1745 12.24 76.1185 12.24C76.0625 12.2307 76.0018 12.2213 75.9365 12.212C76.0485 12.0533 76.1558 11.8387 76.2585 11.568C76.3611 11.288 76.4125 11.036 76.4125 10.812C76.4125 10.6627 76.3798 10.5413 76.3145 10.448C76.2585 10.3547 76.1558 10.308 76.0065 10.308C75.8011 10.308 75.5725 10.434 75.3205 10.686C75.0778 10.9287 74.8398 11.288 74.6065 11.764C74.3825 12.2307 74.1958 12.8047 74.0465 13.486C73.9065 14.1673 73.8365 14.942 73.8365 15.81C73.8365 15.9967 73.8458 16.188 73.8645 16.384C73.8831 16.58 73.8971 16.7853 73.9065 17C73.8131 17.0093 73.7338 17.014 73.6685 17.014C73.6031 17.0233 73.5425 17.028 73.4865 17.028C73.0851 17.028 72.7771 16.9347 72.5625 16.748C72.3571 16.5613 72.2545 16.2533 72.2545 15.824C72.2545 15.6187 72.2825 15.3293 72.3385 14.956C72.4038 14.5733 72.4738 14.144 72.5485 13.668C72.6231 13.192 72.6885 12.702 72.7445 12.198C72.8098 11.6847 72.8425 11.1947 72.8425 10.728C72.8425 10.364 72.8238 10.0047 72.7865 9.65C72.7491 9.29533 72.6885 8.95467 72.6045 8.628C73.1831 8.86133 73.5751 9.18333 73.7805 9.594C73.9858 10.0047 74.0885 10.4807 74.0885 11.022C74.0885 11.1153 74.0838 11.232 74.0745 11.372C74.0745 11.5027 74.0651 11.6427 74.0465 11.792L74.1585 11.82ZM81.0169 17.21C80.5223 17.21 80.0789 17.0653 79.6869 16.776C79.3043 16.4867 79.0009 16.0853 78.7769 15.572C78.5623 15.0493 78.4549 14.4567 78.4549 13.794C78.4549 13.1033 78.5529 12.464 78.7489 11.876C78.9543 11.2787 79.2389 10.7607 79.6029 10.322C79.9669 9.88333 80.3916 9.54267 80.8769 9.3C81.3716 9.048 81.9036 8.922 82.4729 8.922C83.1636 8.922 83.6863 9.09467 84.0409 9.44C84.3956 9.78533 84.5729 10.2893 84.5729 10.952C84.5729 11.4467 84.4376 11.8947 84.1669 12.296C83.8963 12.688 83.5229 12.996 83.0469 13.22C82.5803 13.444 82.0436 13.556 81.4369 13.556C81.1383 13.556 80.8583 13.542 80.5969 13.514C80.3356 13.4767 80.0836 13.43 79.8409 13.374L79.8829 12.884H80.4009C80.9423 12.884 81.4136 12.7953 81.8149 12.618C82.2163 12.4313 82.5289 12.17 82.7529 11.834C82.9769 11.498 83.0889 11.1107 83.0889 10.672C83.0889 10.3453 83.0096 10.0933 82.8509 9.916C82.7016 9.73867 82.4869 9.65 82.2069 9.65C81.8523 9.65 81.5349 9.78533 81.2549 10.056C80.9749 10.3173 80.7369 10.6627 80.5409 11.092C80.3449 11.512 80.1956 11.9647 80.0929 12.45C79.9903 12.9353 79.9389 13.3973 79.9389 13.836C79.9389 14.6573 80.0603 15.278 80.3029 15.698C80.5549 16.1087 80.9236 16.314 81.4089 16.314C82.3236 16.314 83.0749 15.8567 83.6629 14.942C84.0083 14.998 84.1809 15.124 84.1809 15.32C83.7796 15.9733 83.3223 16.454 82.8089 16.762C82.3049 17.0607 81.7076 17.21 81.0169 17.21ZM90.9708 14.62C90.7935 15.1053 90.5368 15.544 90.2008 15.936C89.8741 16.3187 89.5055 16.622 89.0948 16.846C88.6935 17.0607 88.2828 17.168 87.8628 17.168C87.2375 17.168 86.7475 16.9253 86.3928 16.44C86.0475 15.9547 85.8748 15.2733 85.8748 14.396C85.8748 13.696 85.9728 13.038 86.1688 12.422C86.3741 11.7967 86.6495 11.2507 86.9948 10.784C87.3495 10.3173 87.7601 9.95333 88.2268 9.692C88.6935 9.42133 89.1928 9.286 89.7248 9.286C89.8835 9.286 90.0515 9.30467 90.2288 9.342C90.4061 9.37 90.6068 9.41667 90.8308 9.482C90.3268 9.60333 89.8601 9.81333 89.4308 10.112C89.0108 10.4107 88.6468 10.77 88.3388 11.19C88.0401 11.61 87.8068 12.0767 87.6388 12.59C87.4708 13.1033 87.3868 13.6447 87.3868 14.214C87.3868 14.7833 87.4848 15.222 87.6808 15.53C87.8768 15.8287 88.1568 15.978 88.5208 15.978C88.9035 15.978 89.2675 15.8287 89.6128 15.53C89.9581 15.222 90.2708 14.8113 90.5508 14.298C90.8308 13.7753 91.0501 13.1873 91.2088 12.534C91.3675 11.8713 91.4468 11.1853 91.4468 10.476C91.4468 10.2333 91.4375 9.986 91.4188 9.734C91.4001 9.47267 91.3721 9.244 91.3348 9.048C91.4281 9.03867 91.5121 9.034 91.5868 9.034C91.6615 9.02467 91.7315 9.02 91.7968 9.02C92.1795 9.02 92.4688 9.118 92.6648 9.314C92.8701 9.51 92.9728 9.79467 92.9728 10.168C92.9728 10.4107 92.9401 10.7233 92.8748 11.106C92.8095 11.4887 92.7301 11.918 92.6368 12.394C92.5528 12.87 92.4735 13.3693 92.3988 13.892C92.3335 14.4147 92.3008 14.9327 92.3008 15.446C92.3008 15.8473 92.3335 16.1927 92.3988 16.482C92.4641 16.7713 92.5761 17.098 92.7348 17.462C92.1375 17.3407 91.7081 17.0793 91.4468 16.678C91.1855 16.2767 91.0548 15.6887 91.0548 14.914C91.0548 14.8393 91.0548 14.788 91.0548 14.76C91.0548 14.7227 91.0595 14.6853 91.0688 14.648L90.9708 14.62ZM95.1535 15.362C95.1535 15.054 95.1862 14.6153 95.2515 14.046C95.3169 13.4767 95.3962 12.8327 95.4895 12.114C95.5829 11.3953 95.6715 10.6487 95.7555 9.874C95.8489 9.09933 95.9282 8.348 95.9935 7.62C96.0589 6.892 96.0915 6.24333 96.0915 5.674C96.0915 5.29133 96.0775 4.96 96.0495 4.68C96.0215 4.39067 95.9795 4.176 95.9235 4.036C96.2782 4.16667 96.5582 4.33933 96.7635 4.554C96.9782 4.76867 97.1275 5.03467 97.2115 5.352C97.3049 5.66933 97.3515 6.04733 97.3515 6.486C97.3515 6.91533 97.3095 7.47533 97.2255 8.166C97.1415 8.85667 97.0482 9.63133 96.9455 10.49C96.8429 11.3487 96.7495 12.2447 96.6655 13.178C96.5815 14.1113 96.5395 15.0353 96.5395 15.95C96.5395 16.1647 96.5442 16.3793 96.5535 16.594C96.5722 16.7993 96.5862 17.0047 96.5955 17.21C96.2502 17.1913 95.9795 17.1353 95.7835 17.042C95.5875 16.9487 95.4429 16.8227 95.3495 16.664C95.2655 16.5053 95.2095 16.3187 95.1815 16.104C95.1629 15.88 95.1535 15.6327 95.1535 15.362ZM104.504 16.706C104.467 16.566 104.434 16.412 104.406 16.244C104.378 16.0667 104.364 15.8893 104.364 15.712C104.364 15.404 104.392 15.0027 104.448 14.508C104.514 14.0133 104.588 13.4627 104.672 12.856C104.766 12.2493 104.854 11.61 104.938 10.938C105.032 10.266 105.106 9.59867 105.162 8.936C105.228 8.264 105.26 7.62933 105.26 7.032L106.66 6.962C106.679 7.03667 106.688 7.116 106.688 7.2C106.698 7.27467 106.702 7.36333 106.702 7.466C106.702 7.75533 106.674 8.124 106.618 8.572C106.562 9.01067 106.497 9.51 106.422 10.07C106.348 10.63 106.268 11.2227 106.184 11.848C106.11 12.4733 106.044 13.1127 105.988 13.766C105.932 14.41 105.904 15.0447 105.904 15.67C105.904 15.8753 105.909 16.0153 105.918 16.09C105.937 16.1553 105.979 16.2253 106.044 16.3L104.504 16.706ZM103.804 17.112C103.879 16.8973 103.977 16.7153 104.098 16.566C104.229 16.4073 104.388 16.2767 104.574 16.174C104.761 16.062 104.98 15.978 105.232 15.922C105.484 15.866 105.764 15.8333 106.072 15.824C106.679 15.8053 107.202 15.7867 107.64 15.768C108.079 15.7493 108.462 15.726 108.788 15.698C109.115 15.67 109.418 15.6327 109.698 15.586C109.988 15.53 110.282 15.4693 110.58 15.404C110.515 15.9453 110.328 16.3653 110.02 16.664C109.722 16.9627 109.334 17.112 108.858 17.112C108.597 17.112 108.2 17.0793 107.668 17.014C107.146 16.958 106.553 16.93 105.89 16.93C105.498 16.93 105.125 16.944 104.77 16.972C104.425 17 104.103 17.0467 103.804 17.112ZM104.084 12.674C104.075 12.6273 104.061 12.562 104.042 12.478C104.033 12.394 104.028 12.324 104.028 12.268C104.028 11.9973 104.084 11.7827 104.196 11.624C104.318 11.456 104.504 11.3347 104.756 11.26C105.018 11.176 105.349 11.134 105.75 11.134C105.918 11.134 106.11 11.1387 106.324 11.148C106.548 11.148 106.768 11.1527 106.982 11.162C107.206 11.1713 107.398 11.176 107.556 11.176C107.967 11.176 108.308 11.1433 108.578 11.078C108.849 11.0127 109.073 10.91 109.25 10.77C109.269 10.8353 109.283 10.9147 109.292 11.008C109.311 11.092 109.32 11.1853 109.32 11.288C109.32 11.6147 109.241 11.8573 109.082 12.016C108.924 12.1653 108.648 12.24 108.256 12.24C108.172 12.24 108.018 12.24 107.794 12.24C107.58 12.2307 107.323 12.226 107.024 12.226C106.595 12.226 106.203 12.2447 105.848 12.282C105.494 12.31 105.172 12.3567 104.882 12.422C104.593 12.4873 104.327 12.5713 104.084 12.674ZM105.848 7.466C105.494 7.466 105.223 7.44733 105.036 7.41C104.859 7.37267 104.738 7.30267 104.672 7.2C104.616 7.09733 104.588 6.94333 104.588 6.738C104.588 6.60733 104.598 6.47667 104.616 6.346C104.635 6.21533 104.663 6.10333 104.7 6.01C105.176 6.07533 105.662 6.12667 106.156 6.164C106.651 6.192 107.132 6.206 107.598 6.206C108.214 6.206 108.816 6.178 109.404 6.122C110.002 6.066 110.557 5.99133 111.07 5.898C111.005 6.28067 110.846 6.584 110.594 6.808C110.352 7.02267 109.988 7.172 109.502 7.256C109.26 7.29333 108.933 7.33067 108.522 7.368C108.121 7.396 107.682 7.41933 107.206 7.438C106.74 7.45667 106.287 7.466 105.848 7.466ZM114.229 12.156C114.472 11.5213 114.77 10.9613 115.125 10.476C115.489 9.99067 115.867 9.61267 116.259 9.342C116.651 9.062 117.015 8.922 117.351 8.922C117.902 8.922 118.28 9.104 118.485 9.468C118.7 9.82267 118.807 10.3033 118.807 10.91C118.807 11.358 118.76 11.848 118.667 12.38C118.583 12.912 118.494 13.458 118.401 14.018C118.308 14.578 118.261 15.1287 118.261 15.67C118.261 16.1087 118.326 16.4353 118.457 16.65C118.588 16.8553 118.788 17.0373 119.059 17.196C118.966 17.2053 118.877 17.21 118.793 17.21C118.709 17.21 118.625 17.21 118.541 17.21C117.916 17.21 117.468 17.0933 117.197 16.86C116.926 16.6267 116.791 16.1973 116.791 15.572C116.791 15.292 116.819 14.9747 116.875 14.62C116.931 14.256 116.996 13.878 117.071 13.486C117.146 13.0847 117.211 12.688 117.267 12.296C117.323 11.8947 117.351 11.5167 117.351 11.162C117.351 10.546 117.164 10.238 116.791 10.238C116.53 10.238 116.236 10.3687 115.909 10.63C115.592 10.882 115.284 11.246 114.985 11.722C114.696 12.198 114.453 12.7673 114.257 13.43C114.07 14.0927 113.977 14.8253 113.977 15.628C113.977 15.8427 113.982 16.0667 113.991 16.3C114 16.524 114.024 16.7573 114.061 17C113.968 17.0093 113.884 17.014 113.809 17.014C113.744 17.0233 113.683 17.028 113.627 17.028C113.226 17.028 112.918 16.9347 112.703 16.748C112.498 16.5613 112.395 16.2533 112.395 15.824C112.395 15.6187 112.423 15.3293 112.479 14.956C112.544 14.5733 112.614 14.144 112.689 13.668C112.764 13.192 112.829 12.702 112.885 12.198C112.95 11.6847 112.983 11.1947 112.983 10.728C112.983 10.364 112.964 10.0047 112.927 9.65C112.89 9.29533 112.829 8.95467 112.745 8.628C113.324 8.86133 113.716 9.18333 113.921 9.594C114.126 10.0047 114.229 10.4807 114.229 11.022C114.229 11.1993 114.22 11.3813 114.201 11.568C114.192 11.7547 114.173 11.946 114.145 12.142L114.229 12.156ZM123.217 17.28C122.377 17.28 121.737 17.112 121.299 16.776C120.86 16.44 120.641 16.034 120.641 15.558C120.641 15.1567 120.753 14.8347 120.977 14.592C121.201 14.34 121.471 14.214 121.789 14.214C121.863 14.214 121.938 14.2233 122.013 14.242C122.097 14.2513 122.181 14.2793 122.265 14.326C122.171 14.4473 122.097 14.592 122.041 14.76C121.985 14.928 121.957 15.0913 121.957 15.25C121.957 15.5767 122.059 15.8707 122.265 16.132C122.479 16.384 122.806 16.51 123.245 16.51C123.459 16.51 123.669 16.468 123.875 16.384C124.08 16.3 124.248 16.174 124.379 16.006C124.519 15.838 124.589 15.628 124.589 15.376C124.589 15.096 124.509 14.8487 124.351 14.634C124.201 14.4193 124.001 14.2187 123.749 14.032C123.506 13.8453 123.249 13.6587 122.979 13.472C122.708 13.2853 122.447 13.0847 122.195 12.87C121.952 12.646 121.751 12.394 121.593 12.114C121.443 11.8247 121.369 11.4887 121.369 11.106C121.369 10.6673 121.481 10.28 121.705 9.944C121.938 9.59867 122.26 9.328 122.671 9.132C123.081 8.936 123.567 8.838 124.127 8.838C124.631 8.838 125.037 8.91733 125.345 9.076C125.662 9.23467 125.891 9.44 126.031 9.692C126.171 9.93467 126.241 10.1913 126.241 10.462C126.241 10.7887 126.147 11.0873 125.961 11.358C125.774 11.6193 125.517 11.75 125.191 11.75C125.125 11.75 125.046 11.7407 124.953 11.722C124.869 11.694 124.775 11.6613 124.673 11.624C124.803 11.4653 124.897 11.288 124.953 11.092C125.009 10.896 125.037 10.7373 125.037 10.616C125.037 10.28 124.925 10.028 124.701 9.86C124.477 9.692 124.229 9.608 123.959 9.608C123.763 9.608 123.567 9.65 123.371 9.734C123.184 9.80867 123.03 9.93 122.909 10.098C122.787 10.266 122.727 10.476 122.727 10.728C122.727 11.0267 122.806 11.2973 122.965 11.54C123.133 11.7827 123.343 12.0067 123.595 12.212C123.847 12.4173 124.113 12.6227 124.393 12.828C124.682 13.024 124.953 13.2293 125.205 13.444C125.457 13.6587 125.662 13.8967 125.821 14.158C125.989 14.4193 126.073 14.7133 126.073 15.04C126.073 15.4787 125.951 15.866 125.709 16.202C125.466 16.538 125.13 16.804 124.701 17C124.271 17.1867 123.777 17.28 123.217 17.28ZM130.468 17.21C129.973 17.21 129.53 17.0653 129.138 16.776C128.755 16.4867 128.452 16.0853 128.228 15.572C128.013 15.0493 127.906 14.4567 127.906 13.794C127.906 13.1033 128.004 12.464 128.2 11.876C128.405 11.2787 128.69 10.7607 129.054 10.322C129.418 9.88333 129.843 9.54267 130.328 9.3C130.823 9.048 131.355 8.922 131.924 8.922C132.615 8.922 133.137 9.09467 133.492 9.44C133.847 9.78533 134.024 10.2893 134.024 10.952C134.024 11.4467 133.889 11.8947 133.618 12.296C133.347 12.688 132.974 12.996 132.498 13.22C132.031 13.444 131.495 13.556 130.888 13.556C130.589 13.556 130.309 13.542 130.048 13.514C129.787 13.4767 129.535 13.43 129.292 13.374L129.334 12.884H129.852C130.393 12.884 130.865 12.7953 131.266 12.618C131.667 12.4313 131.98 12.17 132.204 11.834C132.428 11.498 132.54 11.1107 132.54 10.672C132.54 10.3453 132.461 10.0933 132.302 9.916C132.153 9.73867 131.938 9.65 131.658 9.65C131.303 9.65 130.986 9.78533 130.706 10.056C130.426 10.3173 130.188 10.6627 129.992 11.092C129.796 11.512 129.647 11.9647 129.544 12.45C129.441 12.9353 129.39 13.3973 129.39 13.836C129.39 14.6573 129.511 15.278 129.754 15.698C130.006 16.1087 130.375 16.314 130.86 16.314C131.775 16.314 132.526 15.8567 133.114 14.942C133.459 14.998 133.632 15.124 133.632 15.32C133.231 15.9733 132.773 16.454 132.26 16.762C131.756 17.0607 131.159 17.21 130.468 17.21ZM137.664 11.736C137.897 11.176 138.168 10.686 138.476 10.266C138.793 9.83667 139.115 9.50533 139.442 9.272C139.778 9.03867 140.086 8.922 140.366 8.922C140.777 8.922 141.094 9.02933 141.318 9.244C141.542 9.45867 141.701 9.748 141.794 10.112C141.887 10.476 141.934 10.8867 141.934 11.344C142.289 10.5787 142.695 9.986 143.152 9.566C143.609 9.13667 144.025 8.922 144.398 8.922C144.799 8.922 145.112 9.006 145.336 9.174C145.56 9.33267 145.719 9.56133 145.812 9.86C145.905 10.1587 145.952 10.5087 145.952 10.91C145.952 11.302 145.924 11.6987 145.868 12.1C145.812 12.492 145.747 12.884 145.672 13.276C145.607 13.668 145.546 14.0647 145.49 14.466C145.434 14.858 145.406 15.2593 145.406 15.67C145.406 16.1087 145.471 16.4353 145.602 16.65C145.733 16.8553 145.933 17.0373 146.204 17.196C146.111 17.2053 146.022 17.21 145.938 17.21C145.854 17.21 145.77 17.21 145.686 17.21C145.117 17.21 144.683 17.0933 144.384 16.86C144.085 16.6267 143.936 16.1973 143.936 15.572C143.936 15.1987 143.983 14.76 144.076 14.256C144.169 13.752 144.263 13.2293 144.356 12.688C144.449 12.1373 144.496 11.6287 144.496 11.162C144.496 10.8633 144.44 10.6347 144.328 10.476C144.225 10.3173 144.067 10.238 143.852 10.238C143.619 10.238 143.362 10.364 143.082 10.616C142.802 10.868 142.531 11.232 142.27 11.708C142.018 12.1747 141.808 12.73 141.64 13.374C141.481 14.018 141.402 14.732 141.402 15.516C141.402 15.7493 141.407 15.992 141.416 16.244C141.435 16.4867 141.458 16.7387 141.486 17C141.393 17.0093 141.309 17.014 141.234 17.014C141.169 17.0233 141.108 17.028 141.052 17.028C140.66 17.028 140.357 16.9393 140.142 16.762C139.937 16.5753 139.834 16.2673 139.834 15.838C139.834 15.5953 139.862 15.2873 139.918 14.914C139.983 14.5313 140.053 14.1253 140.128 13.696C140.212 13.2573 140.282 12.8187 140.338 12.38C140.403 11.9413 140.436 11.5353 140.436 11.162C140.436 10.546 140.221 10.238 139.792 10.238C139.559 10.238 139.302 10.364 139.022 10.616C138.742 10.868 138.471 11.2273 138.21 11.694C137.958 12.1607 137.748 12.716 137.58 13.36C137.421 14.004 137.342 14.7227 137.342 15.516C137.342 15.7493 137.347 15.992 137.356 16.244C137.375 16.4867 137.398 16.7387 137.426 17C137.333 17.0093 137.249 17.014 137.174 17.014C137.109 17.0233 137.048 17.028 136.992 17.028C136.6 17.028 136.297 16.9393 136.082 16.762C135.877 16.5753 135.774 16.2673 135.774 15.838C135.774 15.6793 135.802 15.418 135.858 15.054C135.914 14.6807 135.979 14.2467 136.054 13.752C136.138 13.2573 136.208 12.7487 136.264 12.226C136.32 11.694 136.348 11.1947 136.348 10.728C136.348 10.364 136.329 10.0047 136.292 9.65C136.255 9.29533 136.194 8.95467 136.11 8.628C136.511 8.77733 136.819 8.97333 137.034 9.216C137.249 9.45867 137.398 9.734 137.482 10.042C137.566 10.3407 137.608 10.672 137.608 11.036C137.608 11.148 137.603 11.26 137.594 11.372C137.594 11.484 137.585 11.6007 137.566 11.722L137.664 11.736ZM150.229 11.512C150.519 10.6813 150.901 10.042 151.377 9.594C151.863 9.146 152.39 8.922 152.959 8.922C153.323 8.922 153.664 9.048 153.981 9.3C154.308 9.552 154.574 9.90667 154.779 10.364C154.985 10.812 155.087 11.344 155.087 11.96C155.087 12.66 154.994 13.3087 154.807 13.906C154.63 14.5033 154.378 15.026 154.051 15.474C153.734 15.922 153.361 16.272 152.931 16.524C152.502 16.776 152.035 16.902 151.531 16.902C151.401 16.902 151.265 16.8927 151.125 16.874C150.985 16.846 150.845 16.8133 150.705 16.776C151.181 16.664 151.597 16.44 151.951 16.104C152.315 15.7587 152.614 15.3573 152.847 14.9C153.09 14.4427 153.272 13.9667 153.393 13.472C153.515 12.9773 153.575 12.52 153.575 12.1C153.575 11.8107 153.538 11.526 153.463 11.246C153.389 10.9567 153.263 10.7187 153.085 10.532C152.908 10.336 152.665 10.238 152.357 10.238C152.049 10.238 151.746 10.3827 151.447 10.672C151.158 10.952 150.892 11.3347 150.649 11.82C150.407 12.296 150.211 12.842 150.061 13.458C149.921 14.0647 149.851 14.69 149.851 15.334C149.851 15.6513 149.87 15.9733 149.907 16.3C149.954 16.6173 150.024 16.9347 150.117 17.252C149.791 17.14 149.506 16.9533 149.263 16.692C149.021 16.4307 148.834 16.0993 148.703 15.698C148.582 15.2967 148.521 14.8487 148.521 14.354C148.521 13.794 148.568 13.178 148.661 12.506C148.755 11.8247 148.862 11.106 148.983 10.35C149.114 9.594 149.226 8.81467 149.319 8.012C149.413 7.2 149.459 6.38333 149.459 5.562C149.459 5.23533 149.45 4.90867 149.431 4.582C149.413 4.246 149.38 3.91933 149.333 3.602C149.697 3.73267 149.977 3.93333 150.173 4.204C150.379 4.46533 150.519 4.778 150.593 5.142C150.677 5.506 150.719 5.89333 150.719 6.304C150.719 6.668 150.682 7.116 150.607 7.648C150.542 8.18 150.463 8.77267 150.369 9.426C150.276 10.07 150.192 10.756 150.117 11.484L150.229 11.512ZM157.21 15.362C157.21 15.054 157.243 14.6153 157.308 14.046C157.374 13.4767 157.453 12.8327 157.546 12.114C157.64 11.3953 157.728 10.6487 157.812 9.874C157.906 9.09933 157.985 8.348 158.05 7.62C158.116 6.892 158.148 6.24333 158.148 5.674C158.148 5.29133 158.134 4.96 158.106 4.68C158.078 4.39067 158.036 4.176 157.98 4.036C158.335 4.16667 158.615 4.33933 158.82 4.554C159.035 4.76867 159.184 5.03467 159.268 5.352C159.362 5.66933 159.408 6.04733 159.408 6.486C159.408 6.91533 159.366 7.47533 159.282 8.166C159.198 8.85667 159.105 9.63133 159.002 10.49C158.9 11.3487 158.806 12.2447 158.722 13.178C158.638 14.1113 158.596 15.0353 158.596 15.95C158.596 16.1647 158.601 16.3793 158.61 16.594C158.629 16.7993 158.643 17.0047 158.652 17.21C158.307 17.1913 158.036 17.1353 157.84 17.042C157.644 16.9487 157.5 16.8227 157.406 16.664C157.322 16.5053 157.266 16.3187 157.238 16.104C157.22 15.88 157.21 15.6327 157.21 15.362ZM163.732 17.21C163.237 17.21 162.794 17.0653 162.402 16.776C162.019 16.4867 161.716 16.0853 161.492 15.572C161.277 15.0493 161.17 14.4567 161.17 13.794C161.17 13.1033 161.268 12.464 161.464 11.876C161.669 11.2787 161.954 10.7607 162.318 10.322C162.682 9.88333 163.106 9.54267 163.592 9.3C164.086 9.048 164.618 8.922 165.188 8.922C165.878 8.922 166.401 9.09467 166.756 9.44C167.11 9.78533 167.288 10.2893 167.288 10.952C167.288 11.4467 167.152 11.8947 166.882 12.296C166.611 12.688 166.238 12.996 165.762 13.22C165.295 13.444 164.758 13.556 164.152 13.556C163.853 13.556 163.573 13.542 163.312 13.514C163.05 13.4767 162.798 13.43 162.556 13.374L162.598 12.884H163.116C163.657 12.884 164.128 12.7953 164.53 12.618C164.931 12.4313 165.244 12.17 165.468 11.834C165.692 11.498 165.804 11.1107 165.804 10.672C165.804 10.3453 165.724 10.0933 165.566 9.916C165.416 9.73867 165.202 9.65 164.922 9.65C164.567 9.65 164.25 9.78533 163.97 10.056C163.69 10.3173 163.452 10.6627 163.256 11.092C163.06 11.512 162.91 11.9647 162.808 12.45C162.705 12.9353 162.654 13.3973 162.654 13.836C162.654 14.6573 162.775 15.278 163.018 15.698C163.27 16.1087 163.638 16.314 164.124 16.314C165.038 16.314 165.79 15.8567 166.378 14.942C166.723 14.998 166.896 15.124 166.896 15.32C166.494 15.9733 166.037 16.454 165.524 16.762C165.02 17.0607 164.422 17.21 163.732 17.21Z" fill="#004D40"/>
<path d="M45.696 37.112C45.6427 37.112 45.592 37.1013 45.544 37.08C45.5013 37.064 45.48 37.0347 45.48 36.992C45.4427 36.752 45.3973 36.456 45.344 36.104C45.296 35.752 45.24 35.3707 45.176 34.96C45.112 34.5493 45.0427 34.136 44.968 33.72C44.8987 33.304 44.824 32.9067 44.744 32.528C44.664 32.1493 44.5787 31.816 44.488 31.528C44.4027 31.2347 44.312 31.016 44.216 30.872C44.312 30.8133 44.4107 30.7653 44.512 30.728C44.6187 30.6853 44.7067 30.664 44.776 30.664C44.856 30.664 44.9253 30.6773 44.984 30.704C45.048 30.7307 45.1067 30.7973 45.16 30.904C45.2187 31.0107 45.2773 31.1813 45.336 31.416C45.3947 31.6453 45.4587 31.9627 45.528 32.368C45.5973 32.7733 45.6773 33.2933 45.768 33.928L46.096 36.192C46.192 35.952 46.3013 35.6693 46.424 35.344C46.552 35.0133 46.6853 34.6613 46.824 34.288C46.968 33.9093 47.1067 33.5307 47.24 33.152C47.3733 32.7733 47.496 32.4133 47.608 32.072C47.72 31.7253 47.8107 31.4187 47.88 31.152C47.9547 30.8853 47.9947 30.6827 48 30.544C48.192 30.5973 48.3493 30.672 48.472 30.768C48.5947 30.864 48.656 30.976 48.656 31.104C48.656 31.2053 48.6187 31.368 48.544 31.592C48.4693 31.816 48.3707 32.0827 48.248 32.392C48.1253 32.696 47.9867 33.0267 47.832 33.384C47.6827 33.736 47.5253 34.0933 47.36 34.456C47.2 34.8133 47.0453 35.1573 46.896 35.488C46.7467 35.8187 46.6133 36.1147 46.496 36.376C46.384 36.6373 46.2987 36.8453 46.24 37C46.224 37.0107 46.1813 37.024 46.112 37.04C46.048 37.0613 45.976 37.0773 45.896 37.088C45.8213 37.104 45.7547 37.112 45.696 37.112ZM42.872 37.112C42.8187 37.112 42.768 37.1013 42.72 37.08C42.6773 37.064 42.656 37.0347 42.656 36.992C42.6187 36.752 42.5733 36.456 42.52 36.104C42.472 35.752 42.416 35.3707 42.352 34.96C42.2933 34.5493 42.2267 34.136 42.152 33.72C42.0827 33.304 42.0053 32.9067 41.92 32.528C41.84 32.1493 41.7547 31.816 41.664 31.528C41.5787 31.2347 41.488 31.016 41.392 30.872C41.488 30.8133 41.5867 30.7653 41.688 30.728C41.7947 30.6853 41.8827 30.664 41.952 30.664C42.032 30.664 42.1013 30.6773 42.16 30.704C42.224 30.7307 42.2827 30.7973 42.336 30.904C42.3947 31.0107 42.4533 31.1813 42.512 31.416C42.5707 31.6453 42.6347 31.9627 42.704 32.368C42.7733 32.7733 42.8533 33.2933 42.944 33.928L43.272 36.192C43.3573 35.9787 43.456 35.728 43.568 35.44C43.68 35.1467 43.7973 34.8347 43.92 34.504C44.048 34.1733 44.1733 33.8373 44.296 33.496C44.4187 33.1547 44.5333 32.8267 44.64 32.512C44.7467 32.192 44.8373 31.904 44.912 31.648L45.28 32.744C45.1573 33.0427 45.0213 33.36 44.872 33.696C44.728 34.0267 44.5813 34.3573 44.432 34.688C44.2827 35.0187 44.1413 35.3333 44.008 35.632C43.8747 35.9307 43.7547 36.2 43.648 36.44C43.5467 36.6747 43.4693 36.8613 43.416 37C43.4 37.0107 43.3573 37.024 43.288 37.04C43.224 37.0613 43.152 37.0773 43.072 37.088C42.9973 37.104 42.9307 37.112 42.872 37.112ZM53.0192 37.12C52.6939 37.12 52.4459 37.0533 52.2752 36.92C52.1045 36.7867 52.0192 36.5413 52.0192 36.184C52.0192 36.024 52.0352 35.8427 52.0672 35.64C52.0992 35.432 52.1365 35.216 52.1792 34.992C52.2219 34.7627 52.2592 34.536 52.2912 34.312C52.3232 34.0827 52.3392 33.8667 52.3392 33.664C52.3392 33.312 52.2165 33.136 51.9712 33.136C51.8325 33.136 51.6752 33.2107 51.4992 33.36C51.3232 33.504 51.1525 33.712 50.9872 33.984C50.8219 34.256 50.6832 34.5813 50.5712 34.96C50.4645 35.3387 50.4112 35.7573 50.4112 36.216C50.4112 36.3387 50.4139 36.4667 50.4192 36.6C50.4245 36.728 50.4379 36.8613 50.4592 37C50.4112 37.0053 50.3685 37.008 50.3312 37.008C50.2992 37.0133 50.2699 37.016 50.2432 37.016C49.9979 37.016 49.8139 36.9653 49.6912 36.864C49.5685 36.7573 49.5072 36.5813 49.5072 36.336C49.5072 36.16 49.5259 35.9227 49.5632 35.624C49.6005 35.3253 49.6459 34.9813 49.6992 34.592C49.7579 34.2027 49.8165 33.784 49.8752 33.336C49.9339 32.888 49.9819 32.4267 50.0192 31.952C50.0565 31.472 50.0752 30.9973 50.0752 30.528C50.0752 30.3093 50.0672 30.12 50.0512 29.96C50.0352 29.7947 50.0112 29.672 49.9792 29.592C50.1925 29.6667 50.3579 29.7653 50.4752 29.888C50.5979 30.0107 50.6859 30.1627 50.7392 30.344C50.7925 30.5253 50.8192 30.7413 50.8192 30.992C50.8192 31.2107 50.8032 31.4933 50.7712 31.84C50.7392 32.1813 50.6965 32.5627 50.6432 32.984C50.5899 33.4053 50.5312 33.8507 50.4672 34.32L50.5152 34.328C50.6485 33.9493 50.8165 33.6133 51.0192 33.32C51.2219 33.0267 51.4352 32.7973 51.6592 32.632C51.8832 32.4667 52.0912 32.384 52.2832 32.384C52.6245 32.384 52.8565 32.488 52.9792 32.696C53.1072 32.8987 53.1712 33.1733 53.1712 33.52C53.1712 33.8187 53.1445 34.12 53.0912 34.424C53.0432 34.7227 52.9925 35.024 52.9392 35.328C52.8859 35.6267 52.8592 35.9307 52.8592 36.24C52.8592 36.4907 52.8965 36.6773 52.9712 36.8C53.0459 36.9173 53.1605 37.0213 53.3152 37.112C53.2619 37.1173 53.2112 37.12 53.1632 37.12C53.1152 37.12 53.0672 37.12 53.0192 37.12ZM55.8199 37.12C55.5373 37.12 55.2839 37.0373 55.0599 36.872C54.8413 36.7067 54.6679 36.4773 54.5399 36.184C54.4173 35.8853 54.3559 35.5467 54.3559 35.168C54.3559 34.7733 54.4119 34.408 54.5239 34.072C54.6413 33.7307 54.8039 33.4347 55.0119 33.184C55.2199 32.9333 55.4626 32.7387 55.7399 32.6C56.0226 32.456 56.3266 32.384 56.6519 32.384C57.0466 32.384 57.3453 32.4827 57.5479 32.68C57.7506 32.8773 57.8519 33.1653 57.8519 33.544C57.8519 33.8267 57.7746 34.0827 57.6199 34.312C57.4653 34.536 57.2519 34.712 56.9799 34.84C56.7133 34.968 56.4066 35.032 56.0599 35.032C55.8893 35.032 55.7293 35.024 55.5799 35.008C55.4306 34.9867 55.2866 34.96 55.1479 34.928L55.1719 34.648H55.4679C55.7773 34.648 56.0466 34.5973 56.2759 34.496C56.5053 34.3893 56.6839 34.24 56.8119 34.048C56.9399 33.856 57.0039 33.6347 57.0039 33.384C57.0039 33.1973 56.9586 33.0533 56.8679 32.952C56.7826 32.8507 56.6599 32.8 56.4999 32.8C56.2973 32.8 56.1159 32.8773 55.9559 33.032C55.7959 33.1813 55.6599 33.3787 55.5479 33.624C55.4359 33.864 55.3506 34.1227 55.2919 34.4C55.2333 34.6773 55.2039 34.9413 55.2039 35.192C55.2039 35.6613 55.2733 36.016 55.4119 36.256C55.5559 36.4907 55.7666 36.608 56.0439 36.608C56.5666 36.608 56.9959 36.3467 57.3319 35.824C57.5293 35.856 57.6279 35.928 57.6279 36.04C57.3986 36.4133 57.1373 36.688 56.8439 36.864C56.5559 37.0347 56.2146 37.12 55.8199 37.12ZM59.9399 34.04C60.0785 33.6293 60.2252 33.304 60.3799 33.064C60.5399 32.8187 60.6999 32.6427 60.8599 32.536C61.0199 32.4293 61.1639 32.376 61.2919 32.376C61.4465 32.376 61.5719 32.4187 61.6679 32.504C61.7692 32.5893 61.8439 32.7013 61.8919 32.84C61.9452 32.9733 61.9719 33.1173 61.9719 33.272C61.9719 33.4427 61.9425 33.6053 61.8839 33.76C61.8305 33.9147 61.7425 34.04 61.6199 34.136C61.5025 34.232 61.3479 34.28 61.1559 34.28C61.1239 34.28 61.0919 34.28 61.0599 34.28C61.0279 34.2747 60.9932 34.2693 60.9559 34.264C61.0199 34.1733 61.0812 34.0507 61.1399 33.896C61.1985 33.736 61.2279 33.592 61.2279 33.464C61.2279 33.3787 61.2092 33.3093 61.1719 33.256C61.1399 33.2027 61.0812 33.176 60.9959 33.176C60.8785 33.176 60.7479 33.248 60.6039 33.392C60.4652 33.5307 60.3292 33.736 60.1959 34.008C60.0679 34.2747 59.9612 34.6027 59.8759 34.992C59.7959 35.3813 59.7559 35.824 59.7559 36.32C59.7559 36.4267 59.7612 36.536 59.7719 36.648C59.7825 36.76 59.7905 36.8773 59.7959 37C59.7425 37.0053 59.6972 37.008 59.6599 37.008C59.6225 37.0133 59.5879 37.016 59.5559 37.016C59.3265 37.016 59.1505 36.9627 59.0279 36.856C58.9105 36.7493 58.8519 36.5733 58.8519 36.328C58.8519 36.2107 58.8679 36.0453 58.8999 35.832C58.9372 35.6133 58.9772 35.368 59.0199 35.096C59.0625 34.824 59.0999 34.544 59.1319 34.256C59.1692 33.9627 59.1879 33.6827 59.1879 33.416C59.1879 33.208 59.1772 33.0027 59.1559 32.8C59.1345 32.5973 59.0999 32.4027 59.0519 32.216C59.3825 32.3493 59.6065 32.5333 59.7239 32.768C59.8412 33.0027 59.8999 33.2747 59.8999 33.584C59.8999 33.6373 59.8972 33.704 59.8919 33.784C59.8919 33.8587 59.8865 33.9387 59.8759 34.024L59.9399 34.04ZM63.859 37.12C63.5763 37.12 63.323 37.0373 63.099 36.872C62.8803 36.7067 62.707 36.4773 62.579 36.184C62.4563 35.8853 62.395 35.5467 62.395 35.168C62.395 34.7733 62.451 34.408 62.563 34.072C62.6803 33.7307 62.843 33.4347 63.051 33.184C63.259 32.9333 63.5017 32.7387 63.779 32.6C64.0617 32.456 64.3657 32.384 64.691 32.384C65.0857 32.384 65.3843 32.4827 65.587 32.68C65.7897 32.8773 65.891 33.1653 65.891 33.544C65.891 33.8267 65.8137 34.0827 65.659 34.312C65.5043 34.536 65.291 34.712 65.019 34.84C64.7523 34.968 64.4457 35.032 64.099 35.032C63.9283 35.032 63.7683 35.024 63.619 35.008C63.4697 34.9867 63.3257 34.96 63.187 34.928L63.211 34.648H63.507C63.8163 34.648 64.0857 34.5973 64.315 34.496C64.5443 34.3893 64.723 34.24 64.851 34.048C64.979 33.856 65.043 33.6347 65.043 33.384C65.043 33.1973 64.9977 33.0533 64.907 32.952C64.8217 32.8507 64.699 32.8 64.539 32.8C64.3363 32.8 64.155 32.8773 63.995 33.032C63.835 33.1813 63.699 33.3787 63.587 33.624C63.475 33.864 63.3897 34.1227 63.331 34.4C63.2723 34.6773 63.243 34.9413 63.243 35.192C63.243 35.6613 63.3123 36.016 63.451 36.256C63.595 36.4907 63.8057 36.608 64.083 36.608C64.6057 36.608 65.035 36.3467 65.371 35.824C65.5683 35.856 65.667 35.928 65.667 36.04C65.4377 36.4133 65.1763 36.688 64.883 36.864C64.595 37.0347 64.2537 37.12 63.859 37.12ZM70.8196 30.928C71.0862 30.8053 71.3262 30.7173 71.5396 30.664C71.7529 30.6107 71.9742 30.584 72.2036 30.584C72.6676 30.584 73.0729 30.712 73.4196 30.968C73.7662 31.2187 74.0356 31.5707 74.2276 32.024C74.4249 32.4773 74.5236 33.008 74.5236 33.616C74.5236 34.1333 74.4489 34.608 74.2996 35.04C74.1556 35.4667 73.9476 35.8373 73.6756 36.152C73.4089 36.4613 73.0889 36.7013 72.7156 36.872C72.3476 37.0373 71.9396 37.12 71.4916 37.12C71.2676 37.12 71.0329 37.096 70.7876 37.048C70.5476 37 70.3209 36.936 70.1076 36.856C69.8942 36.7707 69.7156 36.6773 69.5716 36.576C69.6356 36.2453 69.6942 35.8987 69.7476 35.536C69.8009 35.1733 69.8489 34.808 69.8916 34.44C69.9396 34.0667 69.9769 33.6987 70.0036 33.336C70.0356 32.968 70.0596 32.6107 70.0756 32.264C70.0916 31.9173 70.0996 31.592 70.0996 31.288C70.0996 31.0853 70.0969 30.92 70.0916 30.792C70.0862 30.664 70.0756 30.5573 70.0596 30.472C70.0436 30.3813 70.0196 30.2987 69.9876 30.224C70.2169 30.2987 70.3982 30.392 70.5316 30.504C70.6649 30.616 70.7609 30.7573 70.8196 30.928ZM70.4996 36.44C70.6062 36.5093 70.7262 36.56 70.8596 36.592C70.9982 36.624 71.1369 36.64 71.2756 36.64C71.7876 36.64 72.2222 36.52 72.5796 36.28C72.9369 36.0347 73.2089 35.6853 73.3956 35.232C73.5876 34.7733 73.6836 34.2213 73.6836 33.576C73.6836 33.0853 73.6116 32.656 73.4676 32.288C73.3236 31.92 73.1209 31.6347 72.8596 31.432C72.5982 31.224 72.2916 31.12 71.9396 31.12C71.7689 31.12 71.5902 31.144 71.4036 31.192C71.2222 31.24 71.0622 31.304 70.9236 31.384C70.9236 31.5867 70.9076 31.856 70.8756 32.192C70.8489 32.5227 70.8142 32.888 70.7716 33.288C70.7342 33.6827 70.6942 34.08 70.6516 34.48C70.6089 34.88 70.5716 35.2533 70.5396 35.6C70.5129 35.9413 70.4996 36.2213 70.4996 36.44ZM76.6977 34.04C76.8364 33.6293 76.983 33.304 77.1377 33.064C77.2977 32.8187 77.4577 32.6427 77.6177 32.536C77.7777 32.4293 77.9217 32.376 78.0497 32.376C78.2044 32.376 78.3297 32.4187 78.4257 32.504C78.527 32.5893 78.6017 32.7013 78.6497 32.84C78.703 32.9733 78.7297 33.1173 78.7297 33.272C78.7297 33.4427 78.7004 33.6053 78.6417 33.76C78.5884 33.9147 78.5004 34.04 78.3777 34.136C78.2604 34.232 78.1057 34.28 77.9137 34.28C77.8817 34.28 77.8497 34.28 77.8177 34.28C77.7857 34.2747 77.751 34.2693 77.7137 34.264C77.7777 34.1733 77.839 34.0507 77.8977 33.896C77.9564 33.736 77.9857 33.592 77.9857 33.464C77.9857 33.3787 77.967 33.3093 77.9297 33.256C77.8977 33.2027 77.839 33.176 77.7537 33.176C77.6364 33.176 77.5057 33.248 77.3617 33.392C77.223 33.5307 77.087 33.736 76.9537 34.008C76.8257 34.2747 76.719 34.6027 76.6337 34.992C76.5537 35.3813 76.5137 35.824 76.5137 36.32C76.5137 36.4267 76.519 36.536 76.5297 36.648C76.5404 36.76 76.5484 36.8773 76.5537 37C76.5004 37.0053 76.455 37.008 76.4177 37.008C76.3804 37.0133 76.3457 37.016 76.3137 37.016C76.0844 37.016 75.9084 36.9627 75.7857 36.856C75.6684 36.7493 75.6097 36.5733 75.6097 36.328C75.6097 36.2107 75.6257 36.0453 75.6577 35.832C75.695 35.6133 75.735 35.368 75.7777 35.096C75.8204 34.824 75.8577 34.544 75.8897 34.256C75.927 33.9627 75.9457 33.6827 75.9457 33.416C75.9457 33.208 75.935 33.0027 75.9137 32.8C75.8924 32.5973 75.8577 32.4027 75.8097 32.216C76.1404 32.3493 76.3644 32.5333 76.4817 32.768C76.599 33.0027 76.6577 33.2747 76.6577 33.584C76.6577 33.6373 76.655 33.704 76.6497 33.784C76.6497 33.8587 76.6444 33.9387 76.6337 34.024L76.6977 34.04ZM80.6168 37.12C80.3341 37.12 80.0808 37.0373 79.8568 36.872C79.6381 36.7067 79.4648 36.4773 79.3368 36.184C79.2141 35.8853 79.1528 35.5467 79.1528 35.168C79.1528 34.7733 79.2088 34.408 79.3208 34.072C79.4381 33.7307 79.6008 33.4347 79.8088 33.184C80.0168 32.9333 80.2595 32.7387 80.5368 32.6C80.8195 32.456 81.1235 32.384 81.4488 32.384C81.8435 32.384 82.1421 32.4827 82.3448 32.68C82.5475 32.8773 82.6488 33.1653 82.6488 33.544C82.6488 33.8267 82.5715 34.0827 82.4168 34.312C82.2621 34.536 82.0488 34.712 81.7768 34.84C81.5101 34.968 81.2035 35.032 80.8568 35.032C80.6861 35.032 80.5261 35.024 80.3768 35.008C80.2275 34.9867 80.0835 34.96 79.9448 34.928L79.9688 34.648H80.2648C80.5741 34.648 80.8435 34.5973 81.0728 34.496C81.3021 34.3893 81.4808 34.24 81.6088 34.048C81.7368 33.856 81.8008 33.6347 81.8008 33.384C81.8008 33.1973 81.7555 33.0533 81.6648 32.952C81.5795 32.8507 81.4568 32.8 81.2968 32.8C81.0941 32.8 80.9128 32.8773 80.7528 33.032C80.5928 33.1813 80.4568 33.3787 80.3448 33.624C80.2328 33.864 80.1475 34.1227 80.0888 34.4C80.0301 34.6773 80.0008 34.9413 80.0008 35.192C80.0008 35.6613 80.0701 36.016 80.2088 36.256C80.3528 36.4907 80.5635 36.608 80.8408 36.608C81.3635 36.608 81.7928 36.3467 82.1288 35.824C82.3261 35.856 82.4248 35.928 82.4248 36.04C82.1955 36.4133 81.9341 36.688 81.6408 36.864C81.3528 37.0347 81.0115 37.12 80.6168 37.12ZM86.3048 35.64C86.2034 35.9173 86.0568 36.168 85.8648 36.392C85.6781 36.6107 85.4674 36.784 85.2328 36.912C85.0034 37.0347 84.7688 37.096 84.5288 37.096C84.1714 37.096 83.8914 36.9573 83.6888 36.68C83.4914 36.4027 83.3928 36.0133 83.3928 35.512C83.3928 35.112 83.4488 34.736 83.5608 34.384C83.6781 34.0267 83.8354 33.7147 84.0328 33.448C84.2354 33.1813 84.4701 32.9733 84.7368 32.824C85.0034 32.6693 85.2888 32.592 85.5928 32.592C85.6834 32.592 85.7794 32.6027 85.8808 32.624C85.9821 32.64 86.0968 32.6667 86.2248 32.704C85.9368 32.7733 85.6701 32.8933 85.4248 33.064C85.1848 33.2347 84.9768 33.44 84.8008 33.68C84.6301 33.92 84.4968 34.1867 84.4008 34.48C84.3048 34.7733 84.2568 35.0827 84.2568 35.408C84.2568 35.7333 84.3128 35.984 84.4248 36.16C84.5368 36.3307 84.6968 36.416 84.9048 36.416C85.1234 36.416 85.3314 36.3307 85.5288 36.16C85.7261 35.984 85.9048 35.7493 86.0648 35.456C86.2248 35.1573 86.3501 34.8213 86.4408 34.448C86.5314 34.0693 86.5768 33.6773 86.5768 33.272C86.5768 33.1333 86.5714 32.992 86.5608 32.848C86.5501 32.6987 86.5341 32.568 86.5128 32.456C86.5661 32.4507 86.6141 32.448 86.6568 32.448C86.6994 32.4427 86.7394 32.44 86.7768 32.44C86.9954 32.44 87.1608 32.496 87.2728 32.608C87.3901 32.72 87.4488 32.8827 87.4488 33.096C87.4488 33.2347 87.4301 33.4133 87.3928 33.632C87.3554 33.8507 87.3101 34.096 87.2568 34.368C87.2088 34.64 87.1634 34.9253 87.1208 35.224C87.0834 35.5227 87.0648 35.8187 87.0648 36.112C87.0648 36.3413 87.0834 36.5387 87.1208 36.704C87.1581 36.8693 87.2221 37.056 87.3128 37.264C86.9714 37.1947 86.7261 37.0453 86.5768 36.816C86.4274 36.5867 86.3528 36.2507 86.3528 35.808C86.3528 35.7653 86.3528 35.736 86.3528 35.72C86.3528 35.6987 86.3554 35.6773 86.3608 35.656L86.3048 35.64ZM89.8069 33.992C89.9402 33.672 90.0949 33.392 90.2709 33.152C90.4522 32.9067 90.6362 32.7173 90.8229 32.584C91.0149 32.4507 91.1909 32.384 91.3509 32.384C91.5855 32.384 91.7669 32.4453 91.8949 32.568C92.0229 32.6907 92.1135 32.856 92.1669 33.064C92.2202 33.272 92.2469 33.5067 92.2469 33.768C92.4495 33.3307 92.6815 32.992 92.9429 32.752C93.2042 32.5067 93.4415 32.384 93.6549 32.384C93.8842 32.384 94.0629 32.432 94.1909 32.528C94.3189 32.6187 94.4095 32.7493 94.4629 32.92C94.5162 33.0907 94.5429 33.2907 94.5429 33.52C94.5429 33.744 94.5269 33.9707 94.4949 34.2C94.4629 34.424 94.4255 34.648 94.3829 34.872C94.3455 35.096 94.3109 35.3227 94.2789 35.552C94.2469 35.776 94.2309 36.0053 94.2309 36.24C94.2309 36.4907 94.2682 36.6773 94.3429 36.8C94.4175 36.9173 94.5322 37.0213 94.6869 37.112C94.6335 37.1173 94.5829 37.12 94.5349 37.12C94.4869 37.12 94.4389 37.12 94.3909 37.12C94.0655 37.12 93.8175 37.0533 93.6469 36.92C93.4762 36.7867 93.3909 36.5413 93.3909 36.184C93.3909 35.9707 93.4175 35.72 93.4709 35.432C93.5242 35.144 93.5775 34.8453 93.6309 34.536C93.6842 34.2213 93.7109 33.9307 93.7109 33.664C93.7109 33.4933 93.6789 33.3627 93.6149 33.272C93.5562 33.1813 93.4655 33.136 93.3429 33.136C93.2095 33.136 93.0629 33.208 92.9029 33.352C92.7429 33.496 92.5882 33.704 92.4389 33.976C92.2949 34.2427 92.1749 34.56 92.0789 34.928C91.9882 35.296 91.9429 35.704 91.9429 36.152C91.9429 36.2853 91.9455 36.424 91.9509 36.568C91.9615 36.7067 91.9749 36.8507 91.9909 37C91.9375 37.0053 91.8895 37.008 91.8469 37.008C91.8095 37.0133 91.7749 37.016 91.7429 37.016C91.5189 37.016 91.3455 36.9653 91.2229 36.864C91.1055 36.7573 91.0469 36.5813 91.0469 36.336C91.0469 36.1973 91.0629 36.0213 91.0949 35.808C91.1322 35.5893 91.1722 35.3573 91.2149 35.112C91.2629 34.8613 91.3029 34.6107 91.3349 34.36C91.3722 34.1093 91.3909 33.8773 91.3909 33.664C91.3909 33.312 91.2682 33.136 91.0229 33.136C90.8895 33.136 90.7429 33.208 90.5829 33.352C90.4229 33.496 90.2682 33.7013 90.1189 33.968C89.9749 34.2347 89.8549 34.552 89.7589 34.92C89.6682 35.288 89.6229 35.6987 89.6229 36.152C89.6229 36.2853 89.6255 36.424 89.6309 36.568C89.6415 36.7067 89.6549 36.8507 89.6709 37C89.6175 37.0053 89.5695 37.008 89.5269 37.008C89.4895 37.0133 89.4549 37.016 89.4229 37.016C89.1989 37.016 89.0255 36.9653 88.9029 36.864C88.7855 36.7573 88.7269 36.5813 88.7269 36.336C88.7269 36.2453 88.7429 36.096 88.7749 35.888C88.8069 35.6747 88.8442 35.4267 88.8869 35.144C88.9349 34.8613 88.9749 34.5707 89.0069 34.272C89.0389 33.968 89.0549 33.6827 89.0549 33.416C89.0549 33.208 89.0442 33.0027 89.0229 32.8C89.0015 32.5973 88.9669 32.4027 88.9189 32.216C89.1482 32.3013 89.3242 32.4133 89.4469 32.552C89.5695 32.6907 89.6549 32.848 89.7029 33.024C89.7509 33.1947 89.7749 33.384 89.7749 33.592C89.7749 33.656 89.7722 33.72 89.7669 33.784C89.7669 33.848 89.7615 33.9147 89.7509 33.984L89.8069 33.992ZM97.0591 37.16C96.5791 37.16 96.2138 37.064 95.9631 36.872C95.7125 36.68 95.5871 36.448 95.5871 36.176C95.5871 35.9467 95.6511 35.7627 95.7791 35.624C95.9071 35.48 96.0618 35.408 96.2431 35.408C96.2858 35.408 96.3285 35.4133 96.3711 35.424C96.4191 35.4293 96.4671 35.4453 96.5151 35.472C96.4618 35.5413 96.4191 35.624 96.3871 35.72C96.3551 35.816 96.3391 35.9093 96.3391 36C96.3391 36.1867 96.3978 36.3547 96.5151 36.504C96.6378 36.648 96.8245 36.72 97.0751 36.72C97.1978 36.72 97.3178 36.696 97.4351 36.648C97.5525 36.6 97.6485 36.528 97.7231 36.432C97.8031 36.336 97.8431 36.216 97.8431 36.072C97.8431 35.912 97.7978 35.7707 97.7071 35.648C97.6218 35.5253 97.5071 35.4107 97.3631 35.304C97.2245 35.1973 97.0778 35.0907 96.9231 34.984C96.7685 34.8773 96.6191 34.7627 96.4751 34.64C96.3365 34.512 96.2218 34.368 96.1311 34.208C96.0458 34.0427 96.0031 33.8507 96.0031 33.632C96.0031 33.3813 96.0671 33.16 96.1951 32.968C96.3285 32.7707 96.5125 32.616 96.7471 32.504C96.9818 32.392 97.2591 32.336 97.5791 32.336C97.8671 32.336 98.0991 32.3813 98.2751 32.472C98.4565 32.5627 98.5871 32.68 98.6671 32.824C98.7471 32.9627 98.7871 33.1093 98.7871 33.264C98.7871 33.4507 98.7338 33.6213 98.6271 33.776C98.5205 33.9253 98.3738 34 98.1871 34C98.1498 34 98.1045 33.9947 98.0511 33.984C98.0031 33.968 97.9498 33.9493 97.8911 33.928C97.9658 33.8373 98.0191 33.736 98.0511 33.624C98.0831 33.512 98.0991 33.4213 98.0991 33.352C98.0991 33.16 98.0351 33.016 97.9071 32.92C97.7791 32.824 97.6378 32.776 97.4831 32.776C97.3711 32.776 97.2591 32.8 97.1471 32.848C97.0405 32.8907 96.9525 32.96 96.8831 33.056C96.8138 33.152 96.7791 33.272 96.7791 33.416C96.7791 33.5867 96.8245 33.7413 96.9151 33.88C97.0111 34.0187 97.1311 34.1467 97.2751 34.264C97.4191 34.3813 97.5711 34.4987 97.7311 34.616C97.8965 34.728 98.0511 34.8453 98.1951 34.968C98.3391 35.0907 98.4565 35.2267 98.5471 35.376C98.6431 35.5253 98.6911 35.6933 98.6911 35.88C98.6911 36.1307 98.6218 36.352 98.4831 36.544C98.3445 36.736 98.1525 36.888 97.9071 37C97.6618 37.1067 97.3791 37.16 97.0591 37.16ZM102.579 36.656C102.633 36.3413 102.683 35.992 102.731 35.608C102.785 35.224 102.833 34.8293 102.875 34.424C102.918 34.0133 102.958 33.6107 102.995 33.216C103.033 32.8213 103.059 32.456 103.075 32.12C103.097 31.7787 103.107 31.488 103.107 31.248C103.107 30.9653 103.099 30.752 103.083 30.608C103.067 30.464 103.038 30.336 102.995 30.224C103.225 30.2987 103.406 30.392 103.539 30.504C103.673 30.616 103.769 30.7573 103.827 30.928C104.046 30.8213 104.283 30.7387 104.539 30.68C104.801 30.616 105.049 30.584 105.283 30.584C105.582 30.584 105.841 30.6373 106.059 30.744C106.278 30.8507 106.446 31.0053 106.563 31.208C106.686 31.4053 106.747 31.64 106.747 31.912C106.747 32.1787 106.689 32.424 106.571 32.648C106.454 32.872 106.283 33.0693 106.059 33.24C105.835 33.4107 105.561 33.5493 105.235 33.656C105.465 33.7093 105.67 33.7867 105.851 33.888C106.033 33.9893 106.187 34.112 106.315 34.256C106.443 34.4 106.539 34.56 106.603 34.736C106.673 34.912 106.707 35.1013 106.707 35.304C106.707 35.576 106.651 35.8293 106.539 36.064C106.427 36.2933 106.27 36.4933 106.067 36.664C105.87 36.8293 105.633 36.9573 105.355 37.048C105.083 37.144 104.782 37.192 104.451 37.192C104.227 37.192 104.003 37.1707 103.779 37.128C103.561 37.0853 103.35 37.024 103.147 36.944C102.945 36.864 102.755 36.768 102.579 36.656ZM104.883 31.096C104.718 31.096 104.55 31.1147 104.379 31.152C104.209 31.1893 104.057 31.24 103.923 31.304C103.923 31.48 103.913 31.704 103.891 31.976C103.87 32.248 103.843 32.5493 103.811 32.88C103.779 33.2107 103.745 33.552 103.707 33.904C103.675 34.2507 103.643 34.592 103.611 34.928C103.579 35.2587 103.553 35.5653 103.531 35.848C103.51 36.1307 103.499 36.368 103.499 36.56C103.643 36.608 103.782 36.6453 103.915 36.672C104.054 36.6933 104.193 36.704 104.331 36.704C104.817 36.704 105.195 36.576 105.467 36.32C105.745 36.064 105.883 35.7173 105.883 35.28C105.883 34.9973 105.817 34.7547 105.683 34.552C105.55 34.3493 105.353 34.1893 105.091 34.072C104.835 33.9547 104.521 33.8853 104.147 33.864L104.123 33.576C104.513 33.5227 104.841 33.432 105.107 33.304C105.374 33.1707 105.577 33 105.715 32.792C105.854 32.584 105.923 32.344 105.923 32.072C105.923 31.864 105.883 31.688 105.803 31.544C105.723 31.3947 105.606 31.2827 105.451 31.208C105.297 31.1333 105.107 31.096 104.883 31.096ZM109.273 37.12C108.99 37.12 108.737 37.0373 108.513 36.872C108.294 36.7067 108.121 36.4773 107.993 36.184C107.87 35.8853 107.809 35.5467 107.809 35.168C107.809 34.7733 107.865 34.408 107.977 34.072C108.094 33.7307 108.257 33.4347 108.465 33.184C108.673 32.9333 108.916 32.7387 109.193 32.6C109.476 32.456 109.78 32.384 110.105 32.384C110.5 32.384 110.798 32.4827 111.001 32.68C111.204 32.8773 111.305 33.1653 111.305 33.544C111.305 33.8267 111.228 34.0827 111.073 34.312C110.918 34.536 110.705 34.712 110.433 34.84C110.166 34.968 109.86 35.032 109.513 35.032C109.342 35.032 109.182 35.024 109.033 35.008C108.884 34.9867 108.74 34.96 108.601 34.928L108.625 34.648H108.921C109.23 34.648 109.5 34.5973 109.729 34.496C109.958 34.3893 110.137 34.24 110.265 34.048C110.393 33.856 110.457 33.6347 110.457 33.384C110.457 33.1973 110.412 33.0533 110.321 32.952C110.236 32.8507 110.113 32.8 109.953 32.8C109.75 32.8 109.569 32.8773 109.409 33.032C109.249 33.1813 109.113 33.3787 109.001 33.624C108.889 33.864 108.804 34.1227 108.745 34.4C108.686 34.6773 108.657 34.9413 108.657 35.192C108.657 35.6613 108.726 36.016 108.865 36.256C109.009 36.4907 109.22 36.608 109.497 36.608C110.02 36.608 110.449 36.3467 110.785 35.824C110.982 35.856 111.081 35.928 111.081 36.04C110.852 36.4133 110.59 36.688 110.297 36.864C110.009 37.0347 109.668 37.12 109.273 37.12ZM113.009 35.192C113.009 35.6293 113.078 35.976 113.217 36.232C113.356 36.4827 113.553 36.608 113.809 36.608C114.012 36.608 114.225 36.5413 114.449 36.408C114.673 36.2693 114.865 36.0747 115.025 35.824C115.11 35.8347 115.18 35.856 115.233 35.888C115.292 35.9147 115.321 35.9653 115.321 36.04C115.166 36.3227 114.988 36.544 114.785 36.704C114.582 36.8587 114.377 36.9653 114.169 37.024C113.966 37.088 113.78 37.12 113.609 37.12C113.358 37.12 113.121 37.0533 112.897 36.92C112.673 36.7867 112.492 36.5813 112.353 36.304C112.214 36.0213 112.145 35.664 112.145 35.232C112.145 34.8587 112.196 34.5013 112.297 34.16C112.404 33.8187 112.556 33.5147 112.753 33.248C112.956 32.9813 113.198 32.7707 113.481 32.616C113.769 32.4613 114.094 32.384 114.457 32.384C114.734 32.384 114.958 32.4347 115.129 32.536C115.3 32.632 115.425 32.76 115.505 32.92C115.585 33.0747 115.625 33.2373 115.625 33.408C115.625 33.5627 115.593 33.712 115.529 33.856C115.465 33.9947 115.374 34.1093 115.257 34.2C115.14 34.2907 115.001 34.336 114.841 34.336C114.788 34.336 114.726 34.3307 114.657 34.32C114.593 34.3093 114.532 34.2907 114.473 34.264C114.558 34.1733 114.63 34.04 114.689 33.864C114.753 33.688 114.785 33.5173 114.785 33.352C114.785 33.2027 114.75 33.0747 114.681 32.968C114.617 32.856 114.5 32.8 114.329 32.8C114.126 32.8 113.942 32.872 113.777 33.016C113.617 33.16 113.478 33.3493 113.361 33.584C113.249 33.8187 113.161 34.0773 113.097 34.36C113.038 34.6373 113.009 34.9147 113.009 35.192ZM118.128 37.12C117.936 37.12 117.744 37.08 117.552 37C117.36 36.9147 117.184 36.7867 117.024 36.616C116.87 36.4453 116.744 36.2293 116.648 35.968C116.552 35.7013 116.504 35.3867 116.504 35.024C116.504 34.5813 116.568 34.176 116.696 33.808C116.83 33.44 117.016 33.1253 117.256 32.864C117.502 32.5973 117.787 32.4 118.112 32.272C118.171 32.272 118.211 32.288 118.232 32.32C118.259 32.352 118.272 32.3893 118.272 32.432C118.107 32.544 117.939 32.6987 117.768 32.896C117.603 33.0933 117.472 33.3653 117.376 33.712L117.432 33.728C117.587 33.392 117.766 33.128 117.968 32.936C118.176 32.744 118.39 32.608 118.608 32.528C118.827 32.448 119.032 32.408 119.224 32.408C119.459 32.408 119.664 32.4773 119.84 32.616C120.016 32.7547 120.152 32.9547 120.248 33.216C120.35 33.472 120.4 33.7813 120.4 34.144C120.4 34.4853 120.358 34.832 120.272 35.184C120.187 35.5307 120.054 35.8507 119.872 36.144C119.691 36.4373 119.456 36.6747 119.168 36.856C118.88 37.032 118.534 37.12 118.128 37.12ZM118.208 36.624C118.432 36.624 118.63 36.5547 118.8 36.416C118.976 36.272 119.123 36.0853 119.24 35.856C119.363 35.6213 119.456 35.3653 119.52 35.088C119.584 34.8107 119.616 34.5387 119.616 34.272C119.616 33.7973 119.547 33.4533 119.408 33.24C119.275 33.0213 119.102 32.912 118.888 32.912C118.68 32.912 118.483 32.9813 118.296 33.12C118.115 33.2587 117.95 33.44 117.8 33.664C117.656 33.888 117.542 34.1333 117.456 34.4C117.376 34.6667 117.336 34.9253 117.336 35.176C117.336 35.4267 117.366 35.664 117.424 35.888C117.483 36.1067 117.576 36.2853 117.704 36.424C117.832 36.5573 118 36.624 118.208 36.624ZM122.682 33.992C122.815 33.672 122.97 33.392 123.146 33.152C123.327 32.9067 123.511 32.7173 123.698 32.584C123.89 32.4507 124.066 32.384 124.226 32.384C124.461 32.384 124.642 32.4453 124.77 32.568C124.898 32.6907 124.989 32.856 125.042 33.064C125.095 33.272 125.122 33.5067 125.122 33.768C125.325 33.3307 125.557 32.992 125.818 32.752C126.079 32.5067 126.317 32.384 126.53 32.384C126.759 32.384 126.938 32.432 127.066 32.528C127.194 32.6187 127.285 32.7493 127.338 32.92C127.391 33.0907 127.418 33.2907 127.418 33.52C127.418 33.744 127.402 33.9707 127.37 34.2C127.338 34.424 127.301 34.648 127.258 34.872C127.221 35.096 127.186 35.3227 127.154 35.552C127.122 35.776 127.106 36.0053 127.106 36.24C127.106 36.4907 127.143 36.6773 127.218 36.8C127.293 36.9173 127.407 37.0213 127.562 37.112C127.509 37.1173 127.458 37.12 127.41 37.12C127.362 37.12 127.314 37.12 127.266 37.12C126.941 37.12 126.693 37.0533 126.522 36.92C126.351 36.7867 126.266 36.5413 126.266 36.184C126.266 35.9707 126.293 35.72 126.346 35.432C126.399 35.144 126.453 34.8453 126.506 34.536C126.559 34.2213 126.586 33.9307 126.586 33.664C126.586 33.4933 126.554 33.3627 126.49 33.272C126.431 33.1813 126.341 33.136 126.218 33.136C126.085 33.136 125.938 33.208 125.778 33.352C125.618 33.496 125.463 33.704 125.314 33.976C125.17 34.2427 125.05 34.56 124.954 34.928C124.863 35.296 124.818 35.704 124.818 36.152C124.818 36.2853 124.821 36.424 124.826 36.568C124.837 36.7067 124.85 36.8507 124.866 37C124.813 37.0053 124.765 37.008 124.722 37.008C124.685 37.0133 124.65 37.016 124.618 37.016C124.394 37.016 124.221 36.9653 124.098 36.864C123.981 36.7573 123.922 36.5813 123.922 36.336C123.922 36.1973 123.938 36.0213 123.97 35.808C124.007 35.5893 124.047 35.3573 124.09 35.112C124.138 34.8613 124.178 34.6107 124.21 34.36C124.247 34.1093 124.266 33.8773 124.266 33.664C124.266 33.312 124.143 33.136 123.898 33.136C123.765 33.136 123.618 33.208 123.458 33.352C123.298 33.496 123.143 33.7013 122.994 33.968C122.85 34.2347 122.73 34.552 122.634 34.92C122.543 35.288 122.498 35.6987 122.498 36.152C122.498 36.2853 122.501 36.424 122.506 36.568C122.517 36.7067 122.53 36.8507 122.546 37C122.493 37.0053 122.445 37.008 122.402 37.008C122.365 37.0133 122.33 37.016 122.298 37.016C122.074 37.016 121.901 36.9653 121.778 36.864C121.661 36.7573 121.602 36.5813 121.602 36.336C121.602 36.2453 121.618 36.096 121.65 35.888C121.682 35.6747 121.719 35.4267 121.762 35.144C121.81 34.8613 121.85 34.5707 121.882 34.272C121.914 33.968 121.93 33.6827 121.93 33.416C121.93 33.208 121.919 33.0027 121.898 32.8C121.877 32.5973 121.842 32.4027 121.794 32.216C122.023 32.3013 122.199 32.4133 122.322 32.552C122.445 32.6907 122.53 32.848 122.578 33.024C122.626 33.1947 122.65 33.384 122.65 33.592C122.65 33.656 122.647 33.72 122.642 33.784C122.642 33.848 122.637 33.9147 122.626 33.984L122.682 33.992ZM130.062 37.12C129.779 37.12 129.526 37.0373 129.302 36.872C129.083 36.7067 128.91 36.4773 128.782 36.184C128.659 35.8853 128.598 35.5467 128.598 35.168C128.598 34.7733 128.654 34.408 128.766 34.072C128.883 33.7307 129.046 33.4347 129.254 33.184C129.462 32.9333 129.705 32.7387 129.982 32.6C130.265 32.456 130.569 32.384 130.894 32.384C131.289 32.384 131.587 32.4827 131.79 32.68C131.993 32.8773 132.094 33.1653 132.094 33.544C132.094 33.8267 132.017 34.0827 131.862 34.312C131.707 34.536 131.494 34.712 131.222 34.84C130.955 34.968 130.649 35.032 130.302 35.032C130.131 35.032 129.971 35.024 129.822 35.008C129.673 34.9867 129.529 34.96 129.39 34.928L129.414 34.648H129.71C130.019 34.648 130.289 34.5973 130.518 34.496C130.747 34.3893 130.926 34.24 131.054 34.048C131.182 33.856 131.246 33.6347 131.246 33.384C131.246 33.1973 131.201 33.0533 131.11 32.952C131.025 32.8507 130.902 32.8 130.742 32.8C130.539 32.8 130.358 32.8773 130.198 33.032C130.038 33.1813 129.902 33.3787 129.79 33.624C129.678 33.864 129.593 34.1227 129.534 34.4C129.475 34.6773 129.446 34.9413 129.446 35.192C129.446 35.6613 129.515 36.016 129.654 36.256C129.798 36.4907 130.009 36.608 130.286 36.608C130.809 36.608 131.238 36.3467 131.574 35.824C131.771 35.856 131.87 35.928 131.87 36.04C131.641 36.4133 131.379 36.688 131.086 36.864C130.798 37.0347 130.457 37.12 130.062 37.12ZM137.927 37.2C137.511 37.2 137.153 37.104 136.855 36.912C136.561 36.72 136.319 36.4667 136.127 36.152C135.94 35.832 135.801 35.4827 135.711 35.104C135.62 34.72 135.575 34.3413 135.575 33.968C135.575 33.5253 135.628 33.1093 135.735 32.72C135.847 32.3307 136.001 31.9787 136.199 31.664C136.396 31.3493 136.628 31.0827 136.895 30.864C137.167 30.6453 137.465 30.4853 137.791 30.384C137.828 30.3893 137.86 30.4053 137.887 30.432C137.919 30.4587 137.937 30.4853 137.943 30.512C137.756 30.6293 137.575 30.7627 137.399 30.912C137.228 31.0613 137.073 31.2427 136.935 31.456C136.801 31.664 136.692 31.9227 136.607 32.232L136.671 32.248C136.847 31.88 137.065 31.5733 137.327 31.328C137.588 31.0773 137.868 30.888 138.167 30.76C138.465 30.632 138.756 30.568 139.039 30.568C139.38 30.568 139.695 30.6613 139.983 30.848C140.271 31.0347 140.503 31.32 140.679 31.704C140.86 32.088 140.951 32.576 140.951 33.168C140.951 33.5413 140.913 33.92 140.839 34.304C140.769 34.688 140.66 35.0533 140.511 35.4C140.361 35.7467 140.167 36.056 139.927 36.328C139.692 36.5947 139.409 36.808 139.079 36.968C138.748 37.1227 138.364 37.2 137.927 37.2ZM138.031 36.72C138.351 36.72 138.636 36.624 138.887 36.432C139.137 36.24 139.348 35.984 139.519 35.664C139.695 35.3387 139.825 34.9813 139.911 34.592C140.001 34.1973 140.047 33.8 140.047 33.4C140.047 32.8453 139.988 32.4053 139.871 32.08C139.753 31.7493 139.593 31.512 139.391 31.368C139.193 31.224 138.969 31.152 138.719 31.152C138.393 31.152 138.095 31.248 137.823 31.44C137.556 31.6267 137.324 31.8773 137.127 32.192C136.929 32.5013 136.777 32.8453 136.671 33.224C136.564 33.6027 136.511 33.9813 136.511 34.36C136.511 34.68 136.54 34.984 136.599 35.272C136.657 35.5547 136.748 35.8053 136.871 36.024C136.993 36.2373 137.151 36.408 137.343 36.536C137.535 36.6587 137.764 36.72 138.031 36.72ZM145.525 37.168C145.295 37.0773 145.117 36.9627 144.989 36.824C144.866 36.68 144.781 36.52 144.733 36.344C144.685 36.1627 144.661 35.9653 144.661 35.752C144.661 35.6667 144.663 35.5813 144.669 35.496C144.679 35.4053 144.69 35.312 144.701 35.216L144.637 35.2C144.514 35.552 144.362 35.864 144.181 36.136C143.999 36.408 143.81 36.6213 143.613 36.776C143.421 36.9253 143.239 37 143.069 37C142.829 37 142.642 36.9413 142.509 36.824C142.381 36.7013 142.29 36.5413 142.237 36.344C142.183 36.1413 142.157 35.9173 142.157 35.672C142.157 35.3893 142.178 35.1147 142.221 34.848C142.269 34.576 142.314 34.312 142.357 34.056C142.399 33.8 142.421 33.5493 142.421 33.304C142.421 33.1547 142.413 33.008 142.397 32.864C142.381 32.72 142.351 32.5733 142.309 32.424C142.511 32.424 142.687 32.4453 142.837 32.488C142.991 32.5307 143.111 32.6133 143.197 32.736C143.287 32.8533 143.333 33.0347 143.333 33.28C143.333 33.472 143.303 33.7067 143.245 33.984C143.191 34.256 143.135 34.5387 143.077 34.832C143.023 35.1253 142.997 35.4 142.997 35.656C142.997 35.8533 143.026 36.0027 143.085 36.104C143.143 36.2 143.237 36.248 143.365 36.248C143.487 36.248 143.615 36.1867 143.749 36.064C143.882 35.9413 144.01 35.7733 144.133 35.56C144.255 35.3467 144.365 35.104 144.461 34.832C144.562 34.5547 144.639 34.264 144.693 33.96C144.751 33.6507 144.781 33.3413 144.781 33.032C144.781 32.9253 144.775 32.816 144.765 32.704C144.759 32.592 144.749 32.4853 144.733 32.384C144.775 32.3787 144.818 32.376 144.861 32.376C144.909 32.3707 144.951 32.368 144.989 32.368C145.106 32.368 145.215 32.3867 145.317 32.424C145.423 32.4613 145.509 32.5333 145.573 32.64C145.642 32.7413 145.677 32.888 145.677 33.08C145.677 33.1813 145.661 33.3307 145.629 33.528C145.602 33.7253 145.567 33.952 145.525 34.208C145.482 34.4587 145.445 34.72 145.413 34.992C145.386 35.2587 145.373 35.5173 145.373 35.768C145.373 36.0133 145.383 36.2533 145.405 36.488C145.426 36.7227 145.466 36.9493 145.525 37.168ZM147.968 36.496C147.968 36.72 147.976 36.9147 147.992 37.08C148.014 37.2507 148.043 37.376 148.08 37.456C147.878 37.3813 147.712 37.28 147.584 37.152C147.462 37.0293 147.374 36.8747 147.32 36.688C147.267 36.5013 147.24 36.28 147.24 36.024C147.24 35.6933 147.267 35.3653 147.32 35.04C147.374 34.7093 147.435 34.368 147.504 34.016C147.574 33.6587 147.635 33.2773 147.688 32.872C147.742 32.4613 147.768 32.0107 147.768 31.52C147.768 31.4347 147.766 31.3493 147.76 31.264C147.76 31.1733 147.76 31.0853 147.76 31C148 31.0373 148.187 31.144 148.32 31.32C148.459 31.496 148.528 31.7413 148.528 32.056C148.528 32.344 148.499 32.6667 148.44 33.024C148.387 33.3813 148.323 33.76 148.248 34.16C148.174 34.5547 148.107 34.952 148.048 35.352C147.995 35.7467 147.968 36.128 147.968 36.496ZM149.472 32.408C149.478 32.4347 149.48 32.4667 149.48 32.504C149.486 32.5413 149.488 32.5787 149.488 32.616C149.488 32.8507 149.443 33.008 149.352 33.088C149.262 33.168 149.139 33.208 148.984 33.208C148.766 33.208 148.563 33.208 148.376 33.208C148.195 33.2027 148.019 33.2053 147.848 33.216C147.678 33.2267 147.502 33.2533 147.32 33.296C147.144 33.3387 146.95 33.4053 146.736 33.496C146.731 33.464 146.726 33.4267 146.72 33.384C146.72 33.3413 146.72 33.3013 146.72 33.264C146.72 33.0773 146.763 32.9387 146.848 32.848C146.939 32.752 147.059 32.6907 147.208 32.664C147.358 32.632 147.523 32.616 147.704 32.616C147.832 32.616 147.963 32.6213 148.096 32.632C148.23 32.6373 148.358 32.64 148.48 32.64C148.667 32.64 148.848 32.6267 149.024 32.6C149.206 32.568 149.355 32.504 149.472 32.408ZM151.254 37.904C151.094 37.84 150.956 37.7573 150.838 37.656C150.726 37.56 150.633 37.4427 150.558 37.304C150.489 37.1707 150.436 37.016 150.398 36.84C150.366 36.664 150.35 36.4693 150.35 36.256C150.35 36.0587 150.358 35.7973 150.374 35.472C150.39 35.1413 150.417 34.776 150.454 34.376C150.497 33.976 150.556 33.5653 150.63 33.144C150.71 32.7173 150.809 32.3067 150.926 31.912C151.049 31.512 151.198 31.1547 151.374 30.84C151.55 30.52 151.758 30.2667 151.998 30.08C152.238 29.8933 152.513 29.8 152.822 29.8C153.009 29.8 153.164 29.8427 153.286 29.928C153.414 30.008 153.478 30.1307 153.478 30.296C153.478 30.3813 153.46 30.4693 153.422 30.56C153.385 30.6453 153.318 30.72 153.222 30.784C153.153 30.7093 153.07 30.6507 152.974 30.608C152.878 30.5653 152.756 30.544 152.606 30.544C152.42 30.544 152.254 30.6267 152.11 30.792C151.966 30.9573 151.841 31.1813 151.734 31.464C151.628 31.7467 151.537 32.0667 151.462 32.424C151.393 32.776 151.334 33.1467 151.286 33.536C151.244 33.92 151.209 34.2987 151.182 34.672C151.161 35.0453 151.145 35.3893 151.134 35.704C151.129 36.0187 151.126 36.2827 151.126 36.496C151.126 36.6507 151.126 36.7813 151.126 36.888C151.132 36.9893 151.137 37.0853 151.142 37.176C151.153 37.2667 151.166 37.368 151.182 37.48C151.198 37.592 151.222 37.7333 151.254 37.904ZM149.822 33.496C149.817 33.464 149.812 33.4267 149.806 33.384C149.806 33.3413 149.806 33.3013 149.806 33.264C149.806 33.0773 149.849 32.9387 149.934 32.848C150.025 32.752 150.145 32.6907 150.294 32.664C150.444 32.632 150.609 32.616 150.79 32.616C150.918 32.616 151.049 32.6213 151.182 32.632C151.316 32.6373 151.444 32.64 151.566 32.64C151.753 32.64 151.934 32.6267 152.11 32.6C152.292 32.568 152.441 32.504 152.558 32.408C152.564 32.4347 152.566 32.4667 152.566 32.504C152.572 32.5413 152.574 32.5787 152.574 32.616C152.574 32.8507 152.529 33.008 152.438 33.088C152.348 33.168 152.225 33.208 152.07 33.208C151.852 33.208 151.649 33.208 151.462 33.208C151.281 33.2027 151.105 33.2053 150.934 33.216C150.764 33.2267 150.588 33.2533 150.406 33.296C150.23 33.3387 150.036 33.4053 149.822 33.496ZM154.174 36.296C154.174 36.488 154.182 36.656 154.198 36.8C154.214 36.9387 154.238 37.0453 154.27 37.12C154.062 37.0453 153.897 36.9467 153.774 36.824C153.657 36.696 153.574 36.5413 153.526 36.36C153.478 36.1733 153.454 35.9493 153.454 35.688C153.454 35.4533 153.476 35.192 153.518 34.904C153.561 34.616 153.604 34.3227 153.646 34.024C153.689 33.7253 153.71 33.44 153.71 33.168C153.71 33.0293 153.708 32.8933 153.702 32.76C153.702 32.6213 153.689 32.4853 153.662 32.352C153.7 32.3467 153.74 32.344 153.782 32.344C153.825 32.3387 153.862 32.336 153.894 32.336C154.134 32.336 154.308 32.3893 154.414 32.496C154.521 32.6027 154.574 32.7787 154.574 33.024C154.574 33.1787 154.542 33.4187 154.478 33.744C154.414 34.0693 154.348 34.4507 154.278 34.888C154.214 35.3253 154.18 35.7947 154.174 36.296ZM154.534 31.672C154.47 31.6933 154.401 31.712 154.326 31.728C154.252 31.744 154.177 31.752 154.102 31.752C154.028 31.752 153.953 31.7413 153.878 31.72C153.804 31.6933 153.74 31.6507 153.686 31.592C153.638 31.528 153.614 31.4453 153.614 31.344C153.614 31.2533 153.63 31.1653 153.662 31.08C153.694 30.9947 153.726 30.9067 153.758 30.816C153.822 30.7893 153.892 30.7707 153.966 30.76C154.046 30.744 154.121 30.736 154.19 30.736C154.265 30.736 154.34 30.7493 154.414 30.776C154.489 30.7973 154.55 30.8373 154.598 30.896C154.652 30.9547 154.678 31.0373 154.678 31.144C154.678 31.2293 154.662 31.3173 154.63 31.408C154.598 31.4933 154.566 31.5813 154.534 31.672ZM156.851 36.496C156.851 36.72 156.859 36.9147 156.875 37.08C156.896 37.2507 156.926 37.376 156.963 37.456C156.76 37.3813 156.595 37.28 156.467 37.152C156.344 37.0293 156.256 36.8747 156.203 36.688C156.15 36.5013 156.123 36.28 156.123 36.024C156.123 35.6933 156.15 35.3653 156.203 35.04C156.256 34.7093 156.318 34.368 156.387 34.016C156.456 33.6587 156.518 33.2773 156.571 32.872C156.624 32.4613 156.651 32.0107 156.651 31.52C156.651 31.4347 156.648 31.3493 156.643 31.264C156.643 31.1733 156.643 31.0853 156.643 31C156.883 31.0373 157.07 31.144 157.203 31.32C157.342 31.496 157.411 31.7413 157.411 32.056C157.411 32.344 157.382 32.6667 157.323 33.024C157.27 33.3813 157.206 33.76 157.131 34.16C157.056 34.5547 156.99 34.952 156.931 35.352C156.878 35.7467 156.851 36.128 156.851 36.496ZM158.355 32.408C158.36 32.4347 158.363 32.4667 158.363 32.504C158.368 32.5413 158.371 32.5787 158.371 32.616C158.371 32.8507 158.326 33.008 158.235 33.088C158.144 33.168 158.022 33.208 157.867 33.208C157.648 33.208 157.446 33.208 157.259 33.208C157.078 33.2027 156.902 33.2053 156.731 33.216C156.56 33.2267 156.384 33.2533 156.203 33.296C156.027 33.3387 155.832 33.4053 155.619 33.496C155.614 33.464 155.608 33.4267 155.603 33.384C155.603 33.3413 155.603 33.3013 155.603 33.264C155.603 33.0773 155.646 32.9387 155.731 32.848C155.822 32.752 155.942 32.6907 156.091 32.664C156.24 32.632 156.406 32.616 156.587 32.616C156.715 32.616 156.846 32.6213 156.979 32.632C157.112 32.6373 157.24 32.64 157.363 32.64C157.55 32.64 157.731 32.6267 157.907 32.6C158.088 32.568 158.238 32.504 158.355 32.408ZM160.145 37.16C159.665 37.16 159.3 37.064 159.049 36.872C158.798 36.68 158.673 36.448 158.673 36.176C158.673 35.9467 158.737 35.7627 158.865 35.624C158.993 35.48 159.148 35.408 159.329 35.408C159.372 35.408 159.414 35.4133 159.457 35.424C159.505 35.4293 159.553 35.4453 159.601 35.472C159.548 35.5413 159.505 35.624 159.473 35.72C159.441 35.816 159.425 35.9093 159.425 36C159.425 36.1867 159.484 36.3547 159.601 36.504C159.724 36.648 159.91 36.72 160.161 36.72C160.284 36.72 160.404 36.696 160.521 36.648C160.638 36.6 160.734 36.528 160.809 36.432C160.889 36.336 160.929 36.216 160.929 36.072C160.929 35.912 160.884 35.7707 160.793 35.648C160.708 35.5253 160.593 35.4107 160.449 35.304C160.31 35.1973 160.164 35.0907 160.009 34.984C159.854 34.8773 159.705 34.7627 159.561 34.64C159.422 34.512 159.308 34.368 159.217 34.208C159.132 34.0427 159.089 33.8507 159.089 33.632C159.089 33.3813 159.153 33.16 159.281 32.968C159.414 32.7707 159.598 32.616 159.833 32.504C160.068 32.392 160.345 32.336 160.665 32.336C160.953 32.336 161.185 32.3813 161.361 32.472C161.542 32.5627 161.673 32.68 161.753 32.824C161.833 32.9627 161.873 33.1093 161.873 33.264C161.873 33.4507 161.82 33.6213 161.713 33.776C161.606 33.9253 161.46 34 161.273 34C161.236 34 161.19 33.9947 161.137 33.984C161.089 33.968 161.036 33.9493 160.977 33.928C161.052 33.8373 161.105 33.736 161.137 33.624C161.169 33.512 161.185 33.4213 161.185 33.352C161.185 33.16 161.121 33.016 160.993 32.92C160.865 32.824 160.724 32.776 160.569 32.776C160.457 32.776 160.345 32.8 160.233 32.848C160.126 32.8907 160.038 32.96 159.969 33.056C159.9 33.152 159.865 33.272 159.865 33.416C159.865 33.5867 159.91 33.7413 160.001 33.88C160.097 34.0187 160.217 34.1467 160.361 34.264C160.505 34.3813 160.657 34.4987 160.817 34.616C160.982 34.728 161.137 34.8453 161.281 34.968C161.425 35.0907 161.542 35.2267 161.633 35.376C161.729 35.5253 161.777 35.6933 161.777 35.88C161.777 36.1307 161.708 36.352 161.569 36.544C161.43 36.736 161.238 36.888 160.993 37C160.748 37.1067 160.465 37.16 160.145 37.16Z" fill="#004D40"/>
<line x1="39" y1="24.5" x2="171" y2="24.5" stroke="#004D40"/>
</svg>
